<?xml version="1.0" encoding="UTF-8" standalone="no"?>
<svg
   xmlns:dc="http://purl.org/dc/elements/1.1/"
   xmlns:cc="http://creativecommons.org/ns#"
   xmlns:rdf="http://www.w3.org/1999/02/22-rdf-syntax-ns#"
   xmlns:svg="http://www.w3.org/2000/svg"
   xmlns="http://www.w3.org/2000/svg"
   xmlns:sodipodi="http://sodipodi.sourceforge.net/DTD/sodipodi-0.dtd"
   xmlns:inkscape="http://www.inkscape.org/namespaces/inkscape"
   inkscape:export-ydpi="15.187008"
   inkscape:export-xdpi="15.187008"
   inkscape:export-filename="D:\GoogleDrive\Job\flnp\dev\logo\regata\logo_inv\RegataLogoSquareInv.png"
   inkscape:version="1.0 (4035a4fb49, 2020-05-01)"
   sodipodi:docname="RegataLogoSquareInv.svg"
   id="svg8"
   version="1.1"
   viewBox="0 0 1000 991"
   height="991"
   width="1000">
  <metadata
     id="metadata14">
    <rdf:RDF>
      <cc:Work
         rdf:about="">
        <dc:format>image/svg+xml</dc:format>
        <dc:type
           rdf:resource="http://purl.org/dc/dcmitype/StillImage" />
        <dc:title>RegataLogo@1x</dc:title>
      </cc:Work>
    </rdf:RDF>
  </metadata>
  <defs
     id="defs12" />
  <sodipodi:namedview
     showborder="false"
     inkscape:document-rotation="0"
     inkscape:snap-global="false"
     inkscape:bbox-paths="true"
     inkscape:bbox-nodes="true"
     inkscape:snap-bbox-edge-midpoints="true"
     inkscape:snap-bbox-midpoints="true"
     inkscape:object-paths="true"
     inkscape:snap-text-baseline="false"
     inkscape:snap-bbox="false"
     inkscape:current-layer="Page-1"
     inkscape:window-maximized="1"
     inkscape:window-y="-8"
     inkscape:window-x="59"
     inkscape:cy="403.69945"
     inkscape:cx="534.85372"
     inkscape:zoom="0.42859213"
     showgrid="false"
     id="namedview10"
     inkscape:window-height="1057"
     inkscape:window-width="1853"
     inkscape:pageshadow="2"
     inkscape:pageopacity="0"
     guidetolerance="10"
     gridtolerance="10"
     objecttolerance="10"
     borderopacity="1"
     bordercolor="#666666"
     pagecolor="#ffffff" />
  <!-- Generator: Sketch 63.1 (92452) - https://sketch.com -->
  <title
     id="title2">RegataLogo@1x</title>
  <desc
     id="desc4">Created with Sketch.</desc>
  <g
     transform="matrix(1.4356762,0,0,0.99916985,-0.90573529,0.41097695)"
     style="fill:none;fill-rule:evenodd;stroke:none;stroke-width:1"
     id="Page-1">
    <ellipse
       ry="603.63251"
       rx="430.10306"
       cy="557.69171"
       cx="380.92108"
       id="path833"
       style="fill:#e21d23;fill-opacity:1;fill-rule:evenodd;stroke:#e21d23;stroke-width:20.3814;stroke-linecap:round;stroke-linejoin:round;stroke-dashoffset:2.64;stroke-opacity:1;paint-order:stroke fill markers" />
    <path
       inkscape:export-ydpi="47.182453"
       inkscape:export-xdpi="47.182453"
       sodipodi:nodetypes="csssccccsccsccscsccsccsc"
       style="stroke:#ffffff;stroke-width:13.6812;stroke-linecap:round;stroke-linejoin:round;stroke-miterlimit:4;stroke-dasharray:none;stroke-opacity:1;paint-order:markers stroke fill"
       inkscape:connector-curvature="0"
       id="RegataLogo"
       d="m 1,802.17541 c 73.924809,1.27712 118.46086,1.27712 133.60814,0 22.72093,-1.91569 34.15201,-6.30262 44.51485,-15.01825 4.43576,-3.73068 16.46656,-12.19708 28.87155,-60.13512 4.61026,-17.81597 11.56048,-57.19845 20.85066,-118.14742 l 17.93308,-169.43478 20.77483,-246.03836 9.09445,-96.903021 C 283.57313,34.166153 290.57838,3 297.66329,3 c 7.08492,0 14.23584,31.166153 21.45276,93.498459 l 9.19678,96.903021 c 11.69399,122.15357 23.75314,229.63282 36.17748,322.43775 12.42433,92.80493 27.04756,184.63276 43.86969,275.48349 l 27.81353,139.44984 c 11.86556,37.57022 23.45072,56.35533 34.75547,56.35533 11.30474,0 22.49622,-18.78511 33.57442,-56.35533 11.28336,-56.05196 19.512,-102.53525 24.68593,-139.44984 5.17393,-36.9146 11.98429,-97.73063 20.4311,-182.4481 l 24.80957,-217.64919 c 6.81146,-45.17819 12.58117,-72.22486 19.37732,-72.22486 6.79614,0 13.58667,22.5891 20.37159,67.76729 L 647.3181,673.2043 c 5.99011,69.58259 12.93367,127.76056 20.83067,174.53391 7.897,46.77334 17.03467,83.84328 27.41301,111.20981" />
  </g>
</svg>
