<?xml version="1.0" encoding="UTF-8"?>
<svg width="699px" height="991px" viewBox="0 0 699 991" version="1.1" xmlns="http://www.w3.org/2000/svg" xmlns:xlink="http://www.w3.org/1999/xlink">
    <!-- Generator: Sketch 63.1 (92452) - https://sketch.com -->
    <title>RegataLogo@1x</title>
    <desc>Created with Sketch.</desc>
    <g id="Page-1" stroke="none" stroke-width="1" fill="none" fill-rule="evenodd">
        <path d="M1,802.175407 C74.9248091,803.452534 119.460856,803.452534 134.60814,802.175407 C157.329066,800.259717 168.760148,795.872787 179.122986,787.157162 C183.558746,783.426483 195.589554,774.960077 207.99454,727.022043 C212.604803,709.206068 219.555023,669.823595 228.845202,608.874622 L246.778282,439.439843 L267.553112,193.401476 L276.647563,96.4984595 C283.573133,34.1661532 290.578376,3 297.663291,3 C304.748207,3 311.899125,34.1661532 319.116048,96.4984595 L328.312827,193.401476 C340.006815,315.555048 352.065975,423.034299 364.490307,515.839228 C376.914639,608.644158 391.537869,700.471988 408.359997,791.322719 L436.173527,930.772563 C448.039092,968.342779 459.624248,987.127887 470.928996,987.127887 C482.233744,987.127887 493.42522,968.342779 504.503424,930.772563 C515.78678,874.720597 524.015422,828.237315 529.18935,791.322719 C534.363278,754.408123 541.173645,693.592091 549.62045,608.874622 L573.395933,386.767865 C580.20739,341.589671 587.011191,319.000574 593.807336,319.000574 C600.603481,319.000574 607.394011,341.589671 614.178927,386.767865 L647.318096,673.204303 C653.308209,742.786895 660.251766,800.964863 668.148768,847.738206 C676.045769,894.511549 685.18344,931.581486 695.561782,958.948018" id="RegataLogo" stroke="#FF0606" stroke-width="6"></path>
    </g>
</svg>