<?xml version="1.0" encoding="UTF-8" standalone="no"?>
<svg
   xmlns:dc="http://purl.org/dc/elements/1.1/"
   xmlns:cc="http://creativecommons.org/ns#"
   xmlns:rdf="http://www.w3.org/1999/02/22-rdf-syntax-ns#"
   xmlns:svg="http://www.w3.org/2000/svg"
   xmlns="http://www.w3.org/2000/svg"
   xmlns:sodipodi="http://sodipodi.sourceforge.net/DTD/sodipodi-0.dtd"
   xmlns:inkscape="http://www.inkscape.org/namespaces/inkscape"
   width="690"
   height="690"
   viewBox="0 0 690 690"
   version="1.1"
   id="svg8"
   sodipodi:docname="RegataLogoCircle.svg"
   inkscape:version="0.92.4 (5da689c313, 2019-01-14)">
  <metadata
     id="metadata14">
    <rdf:RDF>
      <cc:Work
         rdf:about="">
        <dc:format>image/svg+xml</dc:format>
        <dc:type
           rdf:resource="http://purl.org/dc/dcmitype/StillImage" />
        <dc:title>RegataLogo@1x</dc:title>
      </cc:Work>
    </rdf:RDF>
  </metadata>
  <defs
     id="defs12" />
  <sodipodi:namedview
     pagecolor="#ffffff"
     bordercolor="#666666"
     borderopacity="1"
     objecttolerance="10"
     gridtolerance="10"
     guidetolerance="10"
     inkscape:pageopacity="0"
     inkscape:pageshadow="2"
     inkscape:window-width="2493"
     inkscape:window-height="1417"
     id="namedview10"
     showgrid="false"
     inkscape:snap-page="false"
     inkscape:snap-grids="true"
     inkscape:snap-to-guides="true"
     inkscape:zoom="0.95257316"
     inkscape:cx="702.32925"
     inkscape:cy="94.348729"
     inkscape:window-x="59"
     inkscape:window-y="-8"
     inkscape:window-maximized="1"
     inkscape:current-layer="layer1"
     showguides="false"
     height="700px"
     fit-margin-top="0"
     fit-margin-left="0"
     fit-margin-right="0"
     fit-margin-bottom="0">
    <inkscape:grid
       type="xygrid"
       id="grid18"
       originx="-5.8781738"
       originy="-289.84589" />
  </sodipodi:namedview>
  <!-- Generator: Sketch 63.1 (92452) - https://sketch.com -->
  <title
     id="title2">RegataLogo@1x</title>
  <desc
     id="desc4">Created with Sketch.</desc>
  <g
     inkscape:groupmode="layer"
     id="layer1"
     inkscape:label="Circle"
     style="display:inline"
     transform="translate(-5.8781738,-11.154114)">
    <circle
       id="path30"
       cy="332.33316"
       cx="346.35486"
       style="fill:#ffffff;stroke-width:0.64285713"
       r="225" />
    <g
       style="fill:none;stroke:#1e2993;stroke-width:0.5;stroke-linecap:round;stroke-linejoin:round"
       id="g4012"
       transform="matrix(3.6047926,0,0,3.2446028,186.75043,329.43603)">
      <polygon
         id="polygon3995"
         points="12,12 22,7 12,2 2,7 " />
      <polyline
         id="polyline3997"
         points="2 17 12 22 22 17" />
      <polyline
         id="polyline3999"
         points="2 12 12 17 22 12" />
    </g>
  </g>
  <g
     id="Page-1"
     transform="matrix(0.45734913,0,0,0.32947709,182.28911,152.8315)"
     style="fill:none;fill-rule:evenodd;stroke:none;stroke-width:1">
    <path
       d="m 1,802.17541 c 73.924809,1.27712 118.46086,1.27712 133.60814,0 22.72093,-1.91569 34.15201,-6.30262 44.51485,-15.01825 4.43576,-3.73068 16.46656,-12.19708 28.87155,-60.13512 4.61026,-17.81597 11.56048,-57.19845 20.85066,-118.14742 l 17.93308,-169.43478 20.77483,-246.03836 9.09445,-96.903021 C 283.57313,34.166153 290.57838,3 297.66329,3 c 7.08492,0 14.23584,31.166153 21.45276,93.498459 l 9.19678,96.903021 c 11.69399,122.15357 23.75314,229.63282 36.17748,322.43775 12.42433,92.80493 27.04756,184.63276 43.86969,275.48349 l 27.81353,139.44984 c 11.86556,37.57022 23.45072,56.35533 34.75547,56.35533 11.30474,0 22.49622,-18.78511 33.57442,-56.35533 11.28336,-56.05196 19.512,-102.53525 24.68593,-139.44984 5.17393,-36.9146 11.98429,-97.73063 20.4311,-182.4481 l 23.77548,-222.10676 c 6.81146,-45.17819 13.61526,-67.76729 20.41141,-67.76729 6.79614,0 13.58667,22.5891 20.37159,67.76729 L 647.3181,673.2043 c 5.99011,69.58259 12.93367,127.76056 20.83067,174.53391 7.897,46.77334 17.03467,83.84328 27.41301,111.20981"
       id="RegataLogo"
       inkscape:connector-curvature="0"
       style="stroke:#ff0606;stroke-width:6" />
  </g>
  <g
     inkscape:groupmode="layer"
     id="layer2"
     inkscape:label="Logo"
     style="display:inline"
     transform="translate(-5.8781738,-11.154114)" />
</svg>
