<?xml version="1.0" encoding="UTF-8" standalone="no"?>
<svg
   xmlns:dc="http://purl.org/dc/elements/1.1/"
   xmlns:cc="http://creativecommons.org/ns#"
   xmlns:rdf="http://www.w3.org/1999/02/22-rdf-syntax-ns#"
   xmlns:svg="http://www.w3.org/2000/svg"
   xmlns="http://www.w3.org/2000/svg"
   xmlns:sodipodi="http://sodipodi.sourceforge.net/DTD/sodipodi-0.dtd"
   xmlns:inkscape="http://www.inkscape.org/namespaces/inkscape"
   width="1000"
   height="991"
   viewBox="0 0 1000 991"
   version="1.1"
   id="svg8"
   sodipodi:docname="RegataLogoSquare.svg"
   inkscape:version="0.92.4 (5da689c313, 2019-01-14)">
  <metadata
     id="metadata14">
    <rdf:RDF>
      <cc:Work
         rdf:about="">
        <dc:format>image/svg+xml</dc:format>
        <dc:type
           rdf:resource="http://purl.org/dc/dcmitype/StillImage" />
        <dc:title>RegataLogo@1x</dc:title>
      </cc:Work>
    </rdf:RDF>
  </metadata>
  <defs
     id="defs12" />
  <sodipodi:namedview
     pagecolor="#ffffff"
     bordercolor="#666666"
     borderopacity="1"
     objecttolerance="10"
     gridtolerance="10"
     guidetolerance="10"
     inkscape:pageopacity="0"
     inkscape:pageshadow="2"
     inkscape:window-width="2493"
     inkscape:window-height="1417"
     id="namedview10"
     showgrid="false"
     inkscape:zoom="0.67357094"
     inkscape:cx="600.9185"
     inkscape:cy="362.10339"
     inkscape:window-x="59"
     inkscape:window-y="-8"
     inkscape:window-maximized="1"
     inkscape:current-layer="Page-1"
     inkscape:snap-bbox="false"
     inkscape:snap-text-baseline="false"
     inkscape:object-paths="true"
     inkscape:snap-bbox-midpoints="true"
     inkscape:snap-bbox-edge-midpoints="true"
     inkscape:bbox-nodes="true"
     inkscape:bbox-paths="true"
     inkscape:snap-global="false" />
  <!-- Generator: Sketch 63.1 (92452) - https://sketch.com -->
  <title
     id="title2">RegataLogo@1x</title>
  <desc
     id="desc4">Created with Sketch.</desc>
  <g
     id="Page-1"
     style="fill:none;fill-rule:evenodd;stroke:none;stroke-width:1"
     transform="matrix(1.4356762,0,0,0.99916985,-0.90573529,0.41097695)">
    <path
       d="m 1,802.17541 c 73.924809,1.27712 118.46086,1.27712 133.60814,0 22.72093,-1.91569 34.15201,-6.30262 44.51485,-15.01825 4.43576,-3.73068 16.46656,-12.19708 28.87155,-60.13512 4.61026,-17.81597 11.56048,-57.19845 20.85066,-118.14742 l 17.93308,-169.43478 20.77483,-246.03836 9.09445,-96.903021 C 283.57313,34.166153 290.57838,3 297.66329,3 c 7.08492,0 14.23584,31.166153 21.45276,93.498459 l 9.19678,96.903021 c 11.69399,122.15357 23.75314,229.63282 36.17748,322.43775 12.42433,92.80493 27.04756,184.63276 43.86969,275.48349 l 27.81353,139.44984 c 11.86556,37.57022 23.45072,56.35533 34.75547,56.35533 11.30474,0 22.49622,-18.78511 33.57442,-56.35533 11.28336,-56.05196 19.512,-102.53525 24.68593,-139.44984 5.17393,-36.9146 11.98429,-97.73063 20.4311,-182.4481 l 24.80957,-217.64919 c 6.81146,-45.17819 12.58117,-72.22486 19.37732,-72.22486 6.79614,0 13.58667,22.5891 20.37159,67.76729 L 647.3181,673.2043 c 5.99011,69.58259 12.93367,127.76056 20.83067,174.53391 7.897,46.77334 17.03467,83.84328 27.41301,111.20981"
       id="RegataLogo"
       inkscape:connector-curvature="0"
       style="stroke:#ff0606;stroke-width:13.68122673;stroke-linecap:round;stroke-linejoin:round;stroke-miterlimit:4;stroke-dasharray:none;paint-order:markers stroke fill"
       sodipodi:nodetypes="csssccccsccsccscsccsccsc"
       inkscape:export-xdpi="47.182453"
       inkscape:export-ydpi="47.182453" />
  </g>
</svg>
