<?xml version="1.0" encoding="UTF-8" standalone="no"?>
<svg
   xmlns:dc="http://purl.org/dc/elements/1.1/"
   xmlns:cc="http://creativecommons.org/ns#"
   xmlns:rdf="http://www.w3.org/1999/02/22-rdf-syntax-ns#"
   xmlns:svg="http://www.w3.org/2000/svg"
   xmlns="http://www.w3.org/2000/svg"
   xmlns:sodipodi="http://sodipodi.sourceforge.net/DTD/sodipodi-0.dtd"
   xmlns:inkscape="http://www.inkscape.org/namespaces/inkscape"
   width="127.84897mm"
   height="46.648243mm"
   viewBox="0 0 127.84897 46.648243"
   version="1.1"
   id="svg8"
   inkscape:version="1.0 (4035a4fb49, 2020-05-01)"
   sodipodi:docname="flnp_logo_inv.svg">
  <defs
     id="defs2" />
  <sodipodi:namedview
     id="base"
     pagecolor="#ffffff"
     bordercolor="#666666"
     borderopacity="1.0"
     inkscape:pageopacity="0.0"
     inkscape:pageshadow="2"
     inkscape:zoom="1.4142136"
     inkscape:cx="258.0945"
     inkscape:cy="39.297824"
     inkscape:document-units="mm"
     inkscape:current-layer="layer1"
     inkscape:document-rotation="0"
     showgrid="false"
     inkscape:showpageshadow="false"
     showborder="false"
     inkscape:window-width="1920"
     inkscape:window-height="1057"
     inkscape:window-x="1912"
     inkscape:window-y="-8"
     inkscape:window-maximized="1" />
  <metadata
     id="metadata5">
    <rdf:RDF>
      <cc:Work
         rdf:about="">
        <dc:format>image/svg+xml</dc:format>
        <dc:type
           rdf:resource="http://purl.org/dc/dcmitype/StillImage" />
        <dc:title />
      </cc:Work>
    </rdf:RDF>
  </metadata>
  <g
     inkscape:label="Layer 1"
     inkscape:groupmode="layer"
     id="layer1"
     transform="translate(-72.340621,-105.38852)">
    <g
       id="g877"
       transform="translate(77.240893,13.096207)">
      <path
         style="fill:#e21d23;stroke-width:0.0846667"
         d="M 57.609621,136.03164 C 55.071737,134.4381 46.994537,129.37955 39.660286,124.79042 9.951625,106.20134 -4.8343252,96.938551 -4.8891828,96.882008 c -0.031816,-0.03279 0.0072,-0.139134 0.086696,-0.236313 0.1433023,-0.17517 0.2778305,-0.09909 15.6534638,8.852215 8.529906,4.9659 15.577332,9.09067 15.660947,9.16615 0.19998,0.18053 11.798119,6.93343 11.963286,6.9655 0.174286,0.0339 26.944867,15.62299 27.050745,15.7523 0.04657,0.0569 0.627591,0.41646 1.291167,0.7991 0.663575,0.38264 1.2065,0.71087 1.2065,0.7294 0,0.0185 -1.304925,0.0303 -2.899834,0.0262 l -2.899833,-0.008 -4.614334,-2.89734 z m 35.130683,-10.49603 c -0.844719,-0.22776 -1.663124,-0.91578 -2.077932,-1.74689 -0.27697,-0.55495 -0.36642,-1.51628 -0.204063,-2.19307 0.246007,-1.02547 1.183403,-1.96756 2.243218,-2.25444 2.652065,-0.71788 4.937964,1.96417 3.773196,4.42707 -0.129515,0.27386 -0.355693,0.63484 -0.502624,0.80218 -0.762161,0.86805 -2.104797,1.26902 -3.231795,0.96515 z m -5.210488,-0.30971 c -1.505128,-0.20271 -2.53647,-0.80792 -3.278252,-1.92371 -0.492184,-0.74035 -0.464879,-0.67517 -2.225285,-5.31202 -0.813012,-2.14144 -1.506331,-3.92166 -1.540688,-3.95602 -0.03437,-0.0344 -0.378731,2.30828 -0.765252,5.20587 -0.386526,2.8976 -0.721526,5.33504 -0.744449,5.41653 -0.03895,0.13847 -0.307253,0.14817 -4.099974,0.14817 -2.232061,0 -4.058294,-0.0136 -4.058294,-0.0303 0,-0.0166 0.284424,-2.13698 0.632054,-4.71186 0.347631,-2.57487 0.613923,-4.71092 0.591761,-4.74678 -0.02216,-0.0359 0.322065,-2.7512 0.764946,-6.03409 0.442882,-3.28289 0.805239,-6.04811 0.805239,-6.14495 0,-0.17419 -0.02565,-0.17606 -2.416836,-0.17606 h -2.416838 l 0.04811,-0.27517 c 0.02646,-0.15134 0.332371,-2.40877 0.679806,-5.0165 0.347434,-2.607733 0.653089,-4.865158 0.679233,-5.0165 l 0.04753,-0.275166 h 2.458225 2.458224 l -0.04769,0.232833 c -0.07602,0.371135 -1.151408,8.449663 -1.148184,8.625363 0.0016,0.0873 0.108742,-0.1079 0.238086,-0.43386 0.793097,-1.99872 2.326392,-2.999658 4.602,-3.0042 1.992564,-0.004 3.238425,0.769028 4.150031,2.57491 0.289366,0.57323 2.629053,6.95935 3.03271,8.27771 0.14688,0.47973 0.296697,0.90361 0.332926,0.94194 0.09714,0.1028 0.148853,-0.18127 0.29784,-1.63603 0.07392,-0.72178 0.39017,-3.19828 0.702785,-5.50333 l 0.568376,-4.191003 4.137076,-0.02198 4.137076,-0.02198 -0.04952,0.275978 c -0.05415,0.301835 -2.594297,19.167945 -2.594297,19.268335 0,0.034 -0.295266,0.10878 -0.656149,0.1662 -1.775113,0.28244 -3.248356,1.6264 -3.705107,3.37998 -0.262027,1.006 -0.119075,2.2704 0.359562,3.18039 0.128186,0.24369 0.245263,0.46952 0.260189,0.50184 0.08289,0.17955 -1.452253,0.34111 -2.236969,0.23542 z M 73.923459,101.50551 c -0.02703,-0.0675 -0.04709,-0.0475 -0.05115,0.0511 -0.0037,0.0893 0.01633,0.13926 0.04447,0.11113 0.02813,-0.0281 0.03114,-0.10116 0.0067,-0.16228 z"
         id="path881" />
      <path
         style="fill:#ffffff;stroke-width:0.0846667;fill-opacity:1"
         d="m 66.881392,138.21702 c -0.744643,-0.43579 -1.363786,-0.82202 -1.375873,-0.85828 -0.02501,-0.075 24.216562,-12.21536 24.391391,-12.21536 0.06259,0 0.180864,0.0741 0.262839,0.16469 0.144551,0.15973 0.13539,0.17339 -0.304377,0.45406 -0.696248,0.44437 -21.258227,13.05771 -21.45075,13.15854 -0.142061,0.0744 -0.387391,-0.0389 -1.52323,-0.70365 z M 22.431361,124.52955 c 0.0294,-0.19791 0.212707,-1.54093 0.407354,-2.9845 l 0.353903,-2.62467 1.11593,-0.0423 c 0.952616,-0.0361 1.150868,-0.0679 1.354667,-0.21713 0.336289,-0.24622 0.514908,-0.65391 0.640176,-1.46117 l 0.108362,-0.6983 5.882716,3.68417 5.882716,3.68418 -0.02381,0.27696 c -0.01309,0.15233 -0.04437,0.38173 -0.06951,0.50979 l -0.0457,0.23283 h -7.830128 -7.830128 z m 75.226443,-0.16383 c 0.342028,-0.72322 0.450985,-1.32922 0.400583,-2.228 -0.0705,-1.25718 -0.62605,-2.36874 -1.581107,-3.16355 l -0.480086,-0.39953 0.15345,-0.25046 c 0.0844,-0.13776 0.192303,-0.3922 0.239793,-0.56542 0.134095,-0.48912 2.451854,-17.819422 2.451854,-18.332921 0,-0.867883 -0.271848,-1.044645 -1.696839,-1.103333 l -0.977748,-0.04027 0.403606,-2.973593 c 0.221988,-1.635477 0.404673,-2.986441 0.405969,-3.002144 0.0013,-0.0157 3.383721,-0.01131 7.516511,0.0098 8.11269,0.04135 8.96339,0.08144 11.15805,0.525809 1.03127,0.208807 2.49564,0.674073 3.12646,0.993347 1.58416,0.801793 2.80102,2.005157 3.42969,3.391666 1.15797,2.553843 0.93636,6.866539 -0.51167,9.957579 -1.65171,3.52581 -5.07432,5.67931 -9.83319,6.18702 -0.45219,0.0482 -1.82918,0.0877 -3.05999,0.0877 h -2.23783 l -0.0444,0.1905 c -0.0244,0.10478 -0.16684,1.12755 -0.31645,2.27282 -0.30037,2.29923 -0.29528,2.36888 0.20035,2.73607 0.2121,0.15714 0.37994,0.18018 1.49918,0.20581 l 1.26034,0.0288 -0.0393,0.22515 c -0.0216,0.12382 -0.19204,1.38719 -0.37873,2.80747 -0.18669,1.42028 -0.3586,2.66806 -0.38201,2.77283 l -0.0426,0.1905 H 102.8659 97.410105 Z M 109.46499,106.2176 c 1.49263,-0.38878 2.48252,-1.53969 2.80922,-3.26615 0.17422,-0.9207 0.11199,-1.63767 -0.19037,-2.1932 -0.26083,-0.47922 -0.65164,-0.778012 -1.32902,-1.016094 -0.77243,-0.271485 -2.3452,-0.4465 -2.3452,-0.26097 0,0.09996 -0.83189,6.329824 -0.88577,6.633364 l -0.0413,0.23283 h 0.7421 c 0.40815,0 0.96633,-0.0584 1.24037,-0.12978 z m -63.758927,18.35428 c 0.03705,-0.1801 0.64289,-4.63241 0.64289,-4.72458 0,-0.0115 0.485775,-0.0354 1.0795,-0.0531 1.283615,-0.0383 1.55999,-0.14403 1.80113,-0.68936 0.110827,-0.25063 0.44201,-2.47451 1.13558,-7.62537 0.538518,-3.99935 0.979124,-7.43539 0.979124,-7.63565 0,-0.20026 -0.03489,-0.45589 -0.07754,-0.56807 -0.155651,-0.40939 -0.401243,-0.4387 -3.690123,-0.44045 l -3.048,-0.002 -0.04398,-1.27109 c -0.03711,-1.0725 -0.07083,-1.31722 -0.215849,-1.566336 -0.27447,-0.471504 -0.447197,-0.496801 -3.428512,-0.502132 l -2.672341,-0.0048 -0.320616,2.434168 c -0.176339,1.33879 -0.340623,2.53894 -0.365076,2.667 l -0.04446,0.23283 h 3.237096 3.237095 l -0.04372,0.1905 c -0.02404,0.10478 -0.24502,1.70453 -0.491056,3.55501 l -0.447336,3.36451 -3.220572,0.0222 -3.220572,0.0222 -0.378109,2.84482 c -0.54136,4.07309 -0.571113,3.99416 1.523681,4.04211 0.695195,0.0159 1.263992,0.0557 1.263992,0.0883 0,0.25128 -0.362207,2.6042 -0.407689,2.64838 -0.0799,0.0776 -11.916182,-6.83612 -11.891342,-6.94589 0.119706,-0.52898 1.990215,-14.77373 1.999504,-15.227099 0.01044,-0.509605 -0.01576,-0.639646 -0.15746,-0.781468 -0.215094,-0.21528 -0.88077,-0.342865 -1.788903,-0.342865 -0.477292,0 -0.708111,-0.03175 -0.708111,-0.09739 0,-0.220027 0.774206,-5.780533 0.81375,-5.844516 0.0236,-0.03819 5.469912,-0.06943 12.102915,-0.06943 11.806601,0 12.060004,0.0034 12.060004,0.161424 0,0.08878 -0.1524,1.287792 -0.338667,2.664462 -0.186267,1.37667 -0.338667,2.542279 -0.338667,2.590242 0,0.05915 2.328961,0.0872 7.239001,0.0872 3.98145,0 7.239,0.0272 7.239,0.06044 0,0.110178 -0.597621,4.55042 -0.637512,4.73662 -0.03759,0.17548 -0.08871,0.18391 -1.288317,0.21244 -1.29968,0.0309 -1.489232,0.0794 -1.713252,0.43809 -0.05991,0.0959 -0.555019,3.49883 -1.109938,7.62863 -0.550981,4.1005 -1.024454,7.58153 -1.052162,7.73564 l -0.05038,0.28019 2.946945,-0.0262 c 2.81292,-0.025 2.964971,-0.0345 3.343257,-0.20934 0.62324,-0.28802 1.211109,-1.23305 1.68996,-2.71669 l 0.198119,-0.61383 h 2.527081 2.527081 l -0.05157,0.3175 c -0.049,0.30169 -1.233319,9.07473 -1.233319,9.13599 0,0.016 -5.660877,0.0292 -12.579729,0.0292 H 45.658166 Z"
         id="path879" />
    </g>
    <path
       transform="matrix(0.26458333,0,0,0.26458333,72.340621,105.38852)"
       id="path835"
       d="m 191.82917,121.38627 c 0.0411,-3.92 2.2704,-16.25492 3.02437,-16.7337 0.49012,-0.31122 2.4179,-0.57077 4.28398,-0.57679 5.27247,-0.017 5.73905,-0.85426 7.59741,-13.633327 3.57164,-24.560461 6.23379,-46.836837 5.79848,-48.520464 l -0.46171,-1.785715 -12.62781,-0.195053 -12.6278,-0.195053 V 34.76265 c 0,-7.654201 -0.32198,-7.840661 -13.53907,-7.840661 h -10.68191 l -0.40029,2.321428 c -0.37145,2.154166 -2.52159,17.639102 -2.52159,18.160049 0,0.128045 5.46429,0.232808 12.14286,0.232808 6.67857,0 12.14285,0.0943 12.14285,0.209551 0,0.476413 -2.89449,21.759234 -3.2501,23.897592 l -0.38606,2.321429 h -12.03099 -12.031 l -0.41243,2.321428 c -1.28617,7.239479 -2.59687,20.150072 -2.18102,21.4834 0.64715,2.074943 1.58455,2.599786 4.6666,2.612806 1.42411,0.006 3.54046,0.20117 4.70301,0.43368 l 2.11372,0.42274 -0.62975,4.01592 c -0.34637,2.20875 -0.76581,4.15196 -0.9321,4.31825 -0.35154,0.35154 -13.15517,-6.86155 -31.31235,-17.640224 l -12.75391,-7.571122 0.43342,-3.16215 c 2.09583,-15.290723 6.25282,-47.778988 6.62264,-51.758136 0.55223,-5.941762 -0.22506,-6.905164 -5.57118,-6.905164 -1.86602,0 -3.52926,-0.241071 -3.69609,-0.535714 -0.16683,-0.294643 0.34039,-5.276786 1.12716,-11.071429 l 1.4305,-10.53571386 h 45.25925 c 43.01467,0 45.25926,0.0634151 45.25926,1.27868696 0,0.7032778 -0.50508,4.9116975 -1.1224,9.3520439 -0.61732,4.440346 -0.94883,8.525651 -0.7367,9.078456 0.32204,0.839237 4.80958,1.005099 27.19382,1.005099 21.78909,0 26.80813,0.177316 26.80813,0.947093 0,1.268602 -2.1355,16.431638 -2.33951,16.611605 -0.0883,0.07786 -2.57052,0.417938 -5.51612,0.755721 l -5.35563,0.614152 -0.57658,2.857143 c -0.31711,1.571429 -2.26294,15.151786 -4.32406,30.178572 l -3.74748,27.321431 h 11.84219 c 9.78792,0 12.13041,-0.20188 13.50369,-1.163767 1.59327,-1.115964 5.79748,-8.9467 5.79865,-10.800522 4.2e-4,-0.668914 2.35246,-0.892857 9.37757,-0.892857 h 9.37701 l -0.39683,2.678572 c -0.21826,1.473214 -1.28499,9.348214 -2.3705,17.500004 l -1.97366,14.82142 h -47.00652 c -44.2969,0 -47.00575,-0.072 -46.99342,-1.25 z"
       style="fill:#f8ffff;stroke-width:0.714286;fill-opacity:1" />
    <path
       transform="matrix(0.26458333,0,0,0.26458333,72.340621,105.38852)"
       id="path837"
       d="m 388.67171,119.30847 c 0.55084,-1.8303 1.00152,-4.18267 1.00152,-5.2275 0,-3.85395 -2.18862,-9.2898 -4.87906,-12.11803 -2.07449,-2.180744 -2.55878,-3.151373 -2.13881,-4.286659 0.72673,-1.964528 7.36153,-49.671218 9.55049,-68.671492 0.60305,-5.234534 -0.42933,-6.368515 -5.79793,-6.368515 -2.13265,0 -3.87755,-0.310377 -3.87755,-0.689727 0,-0.830526 1.99169,-15.8550724 2.53614,-19.1317013 l 0.38574,-2.32142856 h 27.03481 c 29.77956,0 38.43226,0.59585456 47.73963,3.28751466 10.0951,2.9194727 16.31859,7.8093172 19.90694,15.6410572 1.69424,3.697754 2.00511,5.428452 2.26597,12.61528 0.55125,15.187296 -3.51971,26.457615 -12.67716,35.096288 -9.07375,8.55971 -18.59395,11.766253 -37.18135,12.523196 l -11.775,0.479521 -0.84111,6.071429 c -1.11719,8.064278 -1.15222,12.385236 -0.10889,13.428571 0.48616,0.486156 2.8145,0.857146 5.37956,0.857146 3.22015,0 4.63306,0.28832 4.90664,1.00126 0.34399,0.89642 -1.3274,15.48747 -2.23765,19.53445 l -0.36148,1.60714 h -19.91649 -19.91649 z m 47.97332,-68.259925 c 4.03527,-2.670417 6.59963,-8.037735 6.59963,-13.813332 0,-4.902534 -1.51589,-7.680371 -4.91523,-9.007064 -2.47615,-0.966388 -9.16707,-1.884693 -9.92479,-1.36214 -0.50863,0.350772 -3.7836,22.805303 -3.74466,25.674905 0.0244,1.794687 8.6389,0.72201 11.98505,-1.492369 z"
       style="fill:#f8ffff;fill-opacity:1;stroke-width:0.714286" />
    <path
       transform="matrix(0.26458333,0,0,0.26458333,72.340621,105.38852)"
       id="path839"
       d="m 271.28037,173.14102 c -2.0625,-1.22368 -3.75,-2.47025 -3.75,-2.77017 0,-0.59897 87.11924,-44.37071 90,-45.21912 1.57484,-0.46381 1.65919,-0.40276 0.71429,0.51696 -2.14487,2.0877 -80.79353,49.8229 -81.98633,49.76097 -0.67537,-0.0351 -2.91546,-1.06496 -4.97796,-2.28864 z"
       style="fill:#f8ffff;fill-opacity:1;stroke-width:0.714286" />
    <path
       transform="matrix(0.26458333,0,0,0.26458333,72.340621,105.38852)"
       id="path841"
       d="m 103.94813,121.39429 c -0.006,-0.69191 0.54544,-5.48612 1.22531,-10.65381 l 1.23612,-9.3958 2.52469,-0.41777 c 1.38858,-0.22977 3.35881,-0.42131 4.37827,-0.42563 2.43156,-0.0103 4.13638,-1.986882 4.77374,-5.534674 l 0.51554,-2.869753 21.78572,13.689627 c 16.51798,10.37952 21.78571,14.02851 21.78571,15.09114 0,1.36651 -0.72693,1.40617 -29.10714,1.5881 -27.38269,0.17553 -29.10779,0.11205 -29.11796,-1.07143 z"
       style="fill:#f8ffff;fill-opacity:1;stroke-width:0.714286" />
    <path
       transform="matrix(0.26458333,0,0,0.26458333,72.340621,105.38852)"
       id="path843"
       d="m 103.22334,123.02681 c 4.6e-4,-0.0875 0.59604,-4.5333 1.32351,-9.87955 0.72746,-5.34626 1.39425,-10.27583 1.48175,-10.95461 0.0875,-0.67879 0.1941,-1.29082 0.23691,-1.36009 0.0441,-0.0713 1.03982,-0.15302 2.29759,-0.18844 1.22086,-0.0344 2.07681,-0.0355 1.90209,-0.003 -0.17471,0.033 -1.11817,0.17976 -2.09657,0.32612 -0.97839,0.14636 -1.84158,0.33068 -1.91818,0.4096 -0.0766,0.0789 -0.32349,1.57298 -0.54864,3.32012 -0.22515,1.74714 -0.66311,5.1493 -0.97325,7.56035 -0.31013,2.41106 -0.68104,5.49078 -0.82423,6.84384 -0.34038,3.21619 -0.45995,3.07809 2.87344,3.31842 3.76798,0.27166 46.11638,0.0636 51.18358,-0.25152 3.30569,-0.20554 4.01923,-0.41923 4.01923,-1.20368 0,-1.3588 -4.1285,-4.15647 -31.66555,-21.458174 -6.40907,-4.026855 -11.72279,-7.336652 -11.80829,-7.355105 -0.10538,-0.02275 -0.26818,0.572427 -0.50555,1.848265 -0.19257,1.034999 -0.41119,2.035634 -0.48582,2.223634 l -0.13571,0.34182 0.0586,-0.381195 c 0.18691,-1.21581 0.74638,-4.453825 0.77567,-4.489387 0.0317,-0.03846 7.42743,4.580167 34.55444,21.579142 l 9.65693,6.05146 -0.0368,1.07234 c -0.0203,0.58979 -0.10646,1.44401 -0.19158,1.89826 l -0.15476,0.82592 -29.50982,0.032 c -23.56718,0.0256 -29.50964,0 -29.50897,-0.12707 z"
       style="fill:#f8ffff;fill-opacity:1;stroke-width:0.127065" />
    <path
       transform="matrix(0.26458333,0,0,0.26458333,72.340621,105.38852)"
       id="path845"
       d="m 191.2023,122.58182 c 0.14027,-0.45815 1.91197,-13.16824 2.36898,-16.99492 0.0835,-0.69886 0.1878,-1.30665 0.23185,-1.35066 0.0441,-0.044 0.99497,-0.1099 2.11314,-0.14642 1.34796,-0.044 1.72336,-0.0322 1.11405,0.035 -0.50544,0.0558 -1.21231,0.17181 -1.57081,0.25781 -0.59123,0.14184 -0.67412,0.2068 -0.8918,0.69889 -0.74795,1.69086 -2.49295,11.39977 -2.73167,15.19852 -0.0834,1.32798 -0.0797,1.3548 0.21875,1.54958 0.16702,0.10901 0.68799,0.25935 1.15772,0.33409 2.42848,0.38639 6.16246,0.42553 48.19296,0.50513 l 42.56671,0.0806 -46.41898,0.0274 c -44.157,0.026 -46.41566,0.0165 -46.3509,-0.19502 z"
       style="fill:#f8ffff;fill-opacity:1;stroke-width:0.127065" />
    <path
       transform="matrix(0.26458333,0,0,0.26458333,72.340621,105.38852)"
       id="path847"
       d=""
       style="fill:#f8ffff;fill-opacity:1;stroke-width:0.0364166" />
    <path
       transform="matrix(0.26458333,0,0,0.26458333,72.340621,105.38852)"
       id="path849"
       d="m 107.70791,123.11918 c -3.44746,-0.027 -4.40628,-0.0518 -4.44536,-0.11504 -0.0224,-0.0363 0.0483,-0.57964 0.82258,-6.31418 1.06209,-7.86656 1.2,-8.8847 1.22202,-9.02221 0.0183,-0.11402 0.0364,-0.13656 0.10972,-0.13656 0.0594,0 0.0878,0.0206 0.0878,0.0637 -3e-5,0.035 -0.14682,1.20265 -0.32621,2.59468 -0.87416,6.78322 -1.20475,9.65323 -1.22066,10.59723 -0.006,0.35051 -0.004,0.54716 0.004,0.437 0.0789,-1.05259 0.40872,-4.00056 0.77832,-6.95557 0.26445,-2.11437 0.82082,-6.41487 0.85629,-6.61872 l 0.0206,-0.11835 h 18.75501 18.75501 l 0.99024,0.62537 c 7.8397,4.951 13.05644,8.39302 15.52047,10.24046 1.21876,0.91378 2.15268,1.74677 2.36479,2.10923 0.10998,0.18795 0.17211,0.2132 0.0783,0.0318 -0.1686,-0.32604 -0.65373,-0.82672 -1.40523,-1.45028 -1.85352,-1.53796 -6.69276,-4.76483 -16.04907,-10.70175 l -1.31855,-0.83667 0.23011,-0.0106 0.23011,-0.0106 1.27052,0.7964 c 0.69879,0.43803 2.14726,1.34568 3.21881,2.01701 3.26672,2.0466 5.51413,3.45482 7.15587,4.48382 3.13771,1.96666 6.63441,4.15801 6.90094,4.32476 l 0.27313,0.17088 -0.0101,0.63279 c -0.0135,0.8497 -0.0956,1.73497 -0.23346,2.51735 l -0.11389,0.64639 -8.92546,1e-5 c -4.90899,0 -16.38174,0.007 -25.495,0.0147 -9.11326,0.008 -18.15914,0.002 -20.10197,-0.013 z m 22.83322,-0.5842 c 10.33907,-0.0494 17.98732,-0.12215 23.05171,-0.21931 5.04562,-0.0968 7.1181,-0.24776 8.01165,-0.58354 0.37617,-0.14135 0.60782,-0.4446 0.59694,-0.78142 -0.002,-0.0757 -0.0178,-0.0439 -0.0501,0.10388 -0.0785,0.3591 -0.2417,0.51077 -0.70731,0.65725 -1.67712,0.52762 -6.83093,0.63447 -38.09516,0.78982 -4.45649,0.0221 -8.10953,0.0469 -8.11787,0.0549 -0.0266,0.0257 7.67751,0.0149 15.31015,-0.0216 z m -18.59068,-0.0392 c -4.72046,-0.0505 -6.64235,-0.1801 -7.51023,-0.50635 -0.11479,-0.0431 -0.21818,-0.0938 -0.22976,-0.11251 -0.0116,-0.0187 -0.039,-0.0341 -0.061,-0.0341 -0.065,0 0.0885,0.14816 0.22629,0.21836 0.65035,0.33136 2.88691,0.46196 7.90241,0.46147 l 2.16679,-2.2e-4 z m 50.20696,-1.75224 c -0.0116,-0.029 -0.0203,-0.0204 -0.022,0.022 -0.002,0.0384 0.007,0.0599 0.0191,0.0478 0.0121,-0.0121 0.0134,-0.0435 0.003,-0.0698 z"
       style="fill:#f8ffff;fill-opacity:1;stroke-width:0.0364166" />
    <path
       transform="matrix(0.26458333,0,0,0.26458333,72.340621,105.38852)"
       id="path851"
       d="m 107.25271,123.1184 c -3.24147,-0.0279 -3.96292,-0.0509 -3.99212,-0.12696 -0.0176,-0.0459 0.17351,-1.50827 0.87823,-6.72027 0.22884,-1.69246 0.58112,-4.29807 0.78284,-5.79024 0.20171,-1.49217 0.37628,-2.76629 0.38791,-2.83139 0.0169,-0.0946 0.0386,-0.11835 0.10815,-0.11835 0.0614,0 0.087,0.0205 0.087,0.0696 0,0.0383 -0.1469,1.21407 -0.32645,2.61289 -0.84793,6.60602 -1.19216,9.57262 -1.22052,10.51855 -0.0176,0.5883 -0.0153,0.57238 0.14775,-1.01967 0.1052,-1.027 0.34958,-3.15657 0.54327,-4.73416 0.23399,-1.90582 0.91527,-7.16988 0.95087,-7.34705 l 0.0201,-0.10014 18.76076,6.2e-4 18.76076,6.2e-4 1.38383,0.87659 c 11.82393,7.48987 16.57852,10.77774 17.47828,12.08648 0.0757,0.11016 0.1276,0.17032 0.11526,0.13369 -0.0526,-0.15616 -0.30926,-0.48736 -0.61307,-0.79116 -1.46412,-1.46412 -5.56976,-4.25634 -16.17045,-10.99743 l -2.03048,-1.29121 0.23529,-0.0107 0.23528,-0.0107 1.95907,1.22812 c 1.87979,1.17841 3.39162,2.12576 6.54756,4.10286 1.89266,1.18569 3.81088,2.38782 5.73561,3.59445 0.85124,0.53365 2.14585,1.34456 2.87692,1.80202 0.73106,0.45746 1.41524,0.88622 1.52039,0.95281 l 0.19119,0.12107 -3.7e-4,0.19164 c -5.8e-4,0.33086 -0.0703,1.55932 -0.11008,1.93964 -0.0327,0.31286 -0.24438,1.62549 -0.26484,1.6426 -0.0264,0.0221 -52.49467,0.0367 -54.97795,0.0153 z m 29.53386,-0.6208 c 11.74074,-0.0778 19.38028,-0.19434 21.52222,-0.32827 2.43215,-0.15208 3.39982,-0.33855 3.71007,-0.71494 0.1101,-0.13357 0.20813,-0.40728 0.17615,-0.49181 -0.0101,-0.0266 -0.0305,0.0222 -0.0453,0.10847 -0.0551,0.31874 -0.25282,0.49834 -0.70565,0.64079 -1.54354,0.48559 -5.69044,0.59613 -27.4251,0.73101 -1.71249,0.0106 -4.36726,0.0274 -5.89949,0.0374 -1.53223,0.01 -4.92443,0.0282 -7.53824,0.0406 -2.6138,0.0124 -4.76056,0.031 -4.77057,0.0413 -0.0237,0.0244 14.11644,-0.019 20.97596,-0.0645 z m -26.7662,-0.025 c -0.98837,-0.0154 -2.76732,-0.0873 -3.45053,-0.13945 -1.22061,-0.0933 -1.93545,-0.22031 -2.26331,-0.40228 -0.19724,-0.10948 -0.23286,-0.0912 -0.0677,0.0347 0.33137,0.25275 0.90759,0.3518 2.68616,0.46174 0.7483,0.0463 3.39994,0.1 3.5142,0.0712 0.0401,-0.0101 -0.1484,-0.0218 -0.41879,-0.026 z m 2.57647,0.035 c -0.37554,-0.006 -0.99007,-0.006 -1.36562,0 -0.37555,0.006 -0.0683,0.0108 0.68281,0.0108 0.75109,0 1.05836,-0.005 0.68281,-0.0108 z"
       style="fill:#f8ffff;fill-opacity:1;stroke-width:0.0364166" />
    <path
       transform="matrix(0.26458333,0,0,0.26458333,72.340621,105.38852)"
       id="path853"
       d=""
       style="fill:#f8ffff;fill-opacity:1;stroke-width:0.0364166" />
    <path
       transform="matrix(0.26458333,0,0,0.26458333,72.340621,105.38852)"
       id="path855"
       d="m 107.19808,123.11925 c -3.22998,-0.028 -3.90762,-0.05 -3.93735,-0.12743 -0.009,-0.0237 0.0587,-0.61551 0.15051,-1.3152 0.25074,-1.90991 1.85896,-13.81645 1.89464,-14.02708 0.0162,-0.0959 0.037,-0.11835 0.10944,-0.11835 0.067,0 0.0894,0.0195 0.0894,0.0777 0,0.0427 -0.1305,1.09563 -0.29001,2.33976 -0.69495,5.42072 -0.97964,7.76115 -1.1456,9.41793 -0.0842,0.84019 -0.14724,1.79569 -0.11059,1.67517 0.009,-0.03 0.0658,-0.54483 0.12596,-1.14397 0.13353,-1.33017 0.29791,-2.76027 0.58429,-5.08327 0.3044,-2.46921 0.88762,-6.97053 0.9307,-7.18318 l 0.0203,-0.10014 h 18.75912 18.75912 l 0.32939,0.20754 c 6.73978,4.24675 12.46875,7.99149 15.07812,9.85582 1.7667,1.26226 2.866,2.16564 3.32301,2.73075 0.2643,0.32681 0.29766,0.33216 0.0683,0.011 -0.34931,-0.48911 -1.27758,-1.29911 -2.6053,-2.27337 -2.34147,-1.71813 -7.87043,-5.34739 -15.54771,-10.20566 l -0.48644,-0.30783 0.24094,-0.0108 0.24094,-0.0108 1.59291,0.99867 c 0.87611,0.54926 3.0514,1.91221 4.83399,3.02877 1.7826,1.11656 3.84742,2.41017 4.5885,2.87469 0.74107,0.46452 1.9604,1.2286 2.70961,1.69795 0.74921,0.46936 2.1995,1.37862 3.22287,2.02058 l 1.86067,1.1672 -0.009,0.63542 c -0.0138,0.99597 -0.0885,1.75798 -0.26868,2.73848 l -0.0786,0.42789 -7.01424,1e-5 c -3.85784,0 -15.52754,0.007 -25.93268,0.0146 -10.40513,0.008 -20.34413,0.002 -22.08667,-0.0129 z m 9.6413,-0.57212 c -0.025,-0.0101 -0.066,-0.0101 -0.091,0 -0.025,0.0101 -0.005,0.0184 0.0455,0.0184 0.0501,0 0.0706,-0.008 0.0455,-0.0184 z m 19.38274,-0.05 c 13.5345,-0.0847 20.39361,-0.1998 22.83321,-0.38317 2.3516,-0.17675 3.01413,-0.39619 3.12728,-1.03579 0.016,-0.0906 0.003,-0.0715 -0.0457,0.0657 -0.12526,0.35455 -0.35449,0.5052 -0.98342,0.64629 -2.03813,0.45724 -6.98188,0.55343 -36.54826,0.71116 -4.18609,0.0223 -7.61927,0.0491 -7.62928,0.0595 -0.0221,0.0229 11.50908,-0.0153 19.24618,-0.0637 z m -24.18973,0.0114 c -0.0651,-0.008 -0.17162,-0.008 -0.23671,0 -0.0651,0.008 -0.0118,0.0147 0.11835,0.0147 0.13019,0 0.18345,-0.007 0.11836,-0.0147 z m 0.23595,0.004 c -0.0121,-0.0121 -0.0435,-0.0134 -0.0698,-0.003 -0.029,0.0116 -0.0204,0.0203 0.022,0.022 0.0384,0.002 0.0599,-0.007 0.0478,-0.0191 z m -2.39364,-0.0392 c -3.08378,-0.0613 -4.88654,-0.22654 -5.49065,-0.50311 -0.11078,-0.0507 -0.20742,-0.0862 -0.21475,-0.0789 -0.0275,0.0275 0.26773,0.20208 0.43616,0.25795 0.58425,0.1938 2.67702,0.34009 4.79583,0.33524 0.51074,-0.001 0.72378,-0.006 0.47341,-0.0112 z"
       style="fill:#f8ffff;fill-opacity:1;stroke-width:0.0364166" />
    <path
       transform="matrix(0.26458333,0,0,0.26458333,72.340621,105.38852)"
       id="path857"
       d=""
       style="fill:#f8ffff;fill-opacity:1;stroke-width:0.0364166" />
    <path
       transform="matrix(0.26458333,0,0,0.26458333,72.340621,105.38852)"
       id="path859"
       d="m 163.08543,109.51946 c -2.27093,-0.91597 -13.01219,-6.98763 -27.33066,-15.449053 -3.68222,-2.175988 -16.14964,-9.575702 -16.18118,-9.603923 -0.0167,-0.01497 0.17561,-1.540836 0.42743,-3.390821 0.55392,-4.069375 0.77351,-5.70039 0.96765,-7.187351 0.0811,-0.620903 0.15572,-1.165787 0.16591,-1.210852 l 0.0185,-0.08194 h 25.07214 25.07214 v 0.728246 0.728246 l -7.52778,0.0092 -7.52778,0.0092 -0.0835,0.473416 c -0.56979,3.228673 -0.73115,4.224872 -1.04404,6.445739 -0.90171,6.4003 -1.6402,14.222128 -1.53346,16.241806 0.0296,0.559127 0.13803,0.951927 0.4224,1.529498 0.50637,1.02847 1.22075,1.468149 2.69114,1.656299 0.17025,0.0218 0.85033,0.0554 1.51129,0.0747 2.44478,0.0714 3.67073,0.20508 5.79024,0.63159 1.03012,0.2073 1.12816,0.23337 1.12033,0.29792 -0.0215,0.17728 -0.57398,3.69702 -0.70561,4.49537 -0.26519,1.60859 -0.6117,3.22892 -0.77311,3.61522 -0.036,0.0861 -0.0807,0.13545 -0.12228,0.13505 -0.0361,-3.7e-4 -0.22946,-0.0667 -0.42975,-0.14753 z"
       style="fill:#f8ffff;fill-opacity:1;stroke-width:0.0364166" />
    <path
       transform="matrix(0.26458333,0,0,0.26458333,72.340621,105.38852)"
       id="path861"
       d="m 163.70451,110.63597 c -3.39665,-1.58789 -42.83463,-24.642279 -44.52973,-26.030885 l -0.10147,-0.08312 0.0734,-0.436999 c 0.15008,-0.893841 0.57799,-3.92365 1.2233,-8.661474 0.20963,-1.53912 0.38115,-2.805052 0.38115,-2.813183 0,-0.0081 0.0827,-0.01478 0.18373,-0.01478 h 0.18373 l -0.0209,0.118354 c -0.0115,0.06509 -0.18474,1.347415 -0.38493,2.8496 -0.20019,1.502185 -0.55279,4.114643 -0.78355,5.805463 -0.34221,2.507417 -0.41086,3.082383 -0.37236,3.118506 0.026,0.02436 2.07106,1.244948 4.54466,2.712419 2.47359,1.467472 5.27585,3.130259 6.22724,3.695082 6.63732,3.940488 11.3673,6.722104 15.89584,9.348077 10.04991,5.82765 16.69839,9.46102 17.31211,9.46102 0.0934,0 0.18858,-0.25201 0.35089,-0.92862 0.26728,-1.1142 0.46438,-2.23085 1.03166,-5.84486 0.22092,-1.40746 0.24219,-1.58702 0.19069,-1.61008 -0.0729,-0.0326 -1.94893,-0.4024 -2.53429,-0.49951 -1.21328,-0.20127 -2.54027,-0.30982 -4.47924,-0.3664 -1.575,-0.046 -2.20156,-0.14365 -2.82116,-0.43986 -0.75066,-0.358881 -1.17302,-0.905809 -1.5366,-1.989841 l -0.11958,-0.356516 0.002,-1.019665 c 0.002,-0.980637 0.0253,-1.491229 0.14323,-3.11362 0.25355,-3.48697 0.82879,-8.675217 1.42125,-12.81851 0.30565,-2.137505 0.41985,-2.839527 0.98792,-6.072605 l 0.0976,-0.555353 h 7.51326 7.51326 v 0.08683 0.08683 l -1.21086,0.02181 c -0.66596,0.01199 -4.0131,0.03988 -7.43809,0.06197 -3.42498,0.02209 -6.22948,0.04285 -6.23223,0.04614 -0.006,0.0074 -1.81452,13.633302 -2.01377,15.173493 -0.41696,3.223154 -0.58502,5.100876 -0.58502,6.536382 0,2.854367 0.71989,3.84248 3.02257,4.148755 0.71386,0.0949 1.33098,0.12795 3.45958,0.18499 2.55352,0.0684 3.97976,0.14056 4.75237,0.24033 0.46486,0.06 0.45523,0.0552 0.45504,0.22816 -9.4e-4,0.85935 -1.36396,9.67166 -1.51941,9.82341 -0.0155,0.0151 -0.14284,-0.0262 -0.28305,-0.0917 z"
       style="fill:#f8ffff;fill-opacity:1;stroke-width:0.0364166" />
    <path
       transform="matrix(0.26458333,0,0,0.26458333,72.340621,105.38852)"
       id="path863"
       d=""
       style="fill:#f8ffff;fill-opacity:1;stroke-width:0.0364166" />
    <path
       transform="matrix(0.26458333,0,0,0.26458333,72.340621,105.38852)"
       id="path865"
       d="m 120.76822,72.477168 c 0.0786,-0.456328 3.44249,-25.945712 3.44249,-26.085208 0,-0.009 0.0655,-0.01639 0.14566,-0.01639 0.0801,0 0.14567,0.01135 0.14567,0.02523 0,0.158496 -2.3266,18.14919 -3.13315,24.227452 -0.13948,1.0511 -0.2536,1.923733 -0.2536,1.939184 0,0.01545 -0.0827,0.02809 -0.18373,0.02809 h -0.18373 z"
       style="fill:#f8ffff;fill-opacity:1;stroke-width:0.0364166" />
    <path
       transform="matrix(0.26458333,0,0,0.26458333,72.340621,105.38852)"
       id="path867"
       d="m 124.22547,46.263282 c 0.0185,-0.08995 0.43539,-3.314337 1.03949,-8.038966 0.12036,-0.941369 0.39095,-3.088128 0.6013,-4.770576 0.71873,-5.748482 0.80752,-6.625323 0.75968,-7.50182 -0.012,-0.220321 -0.0122,-0.391821 -3.7e-4,-0.381113 0.0118,0.01071 0.0402,0.310267 0.0631,0.665684 0.0628,0.975822 -0.0157,2.351808 -0.25772,4.522421 -0.24552,2.201473 -1.85591,15.278184 -1.9116,15.522578 -0.0156,0.06845 -0.043,0.08194 -0.16654,0.08194 -0.14201,0 -0.14705,-0.004 -0.12731,-0.100145 z"
       style="fill:#f8ffff;fill-opacity:1;stroke-width:0.0364166" />
    <path
       transform="matrix(0.26458333,0,0,0.26458333,72.340621,105.38852)"
       id="path869"
       d="m 125.93112,23.918947 c -0.34083,-0.303635 -1.15592,-0.630355 -2.03056,-0.813928 -1.20294,-0.252477 -2.20662,-0.343297 -4.29656,-0.388777 -2.0969,-0.04563 -2.75025,-0.1084 -2.94288,-0.282725 -0.0604,-0.05466 -0.066,-0.09465 -0.0447,-0.317468 0.19557,-2.042883 2.5267,-18.8433676 2.96821,-21.39202502 0.0396,-0.22882643 0.09,-0.42711937 0.11189,-0.440651 0.20919,-0.12928648 12.23858,-0.21403112 34.43953,-0.24261949 l 17.16133,-0.0220988 v 0.22385506 0.22385506 h -25.71127 c -20.53612,0 -25.71452,0.009162 -25.72741,0.0455207 -0.009,0.0250364 -0.16372,1.13528769 -0.34408,2.46722499 -0.18036,1.3319374 -0.51659,3.8104629 -0.74718,5.5078343 -0.92292,6.7935842 -1.3412,10.3723002 -1.48028,12.6651342 -0.0515,0.848678 -0.039,0.949414 0.13069,1.054284 0.39151,0.241965 1.91422,0.435707 3.44253,0.438009 1.53814,0.0023 2.73847,0.103198 3.49338,0.293599 0.72261,0.182251 1.38612,0.571097 1.68089,0.985066 0.1113,0.156302 0.0749,0.154863 -0.10353,-0.0041 z"
       style="fill:#f8ffff;fill-opacity:1;stroke-width:0.0364166" />
    <path
       transform="matrix(0.26458333,0,0,0.26458333,72.340621,105.38852)"
       id="path871"
       d="M 152.91913,20.562262 V 0.51492028 l 16.61508,6.9074e-4 c 33.55027,0.001395 39.138,0.10660928 40.46933,0.76201908 0.31763,0.1563708 0.36467,0.2379397 0.35502,0.6156816 -0.0199,0.7788481 -0.38328,3.8443919 -0.99351,8.3812593 -0.67076,4.98695 -0.94011,7.757078 -0.90548,9.312344 0.0118,0.52821 0.0208,0.598065 0.0895,0.690464 0.29531,0.397089 1.58761,0.593676 4.858,0.739009 2.19097,0.09736 7.73396,0.18211 11.95375,0.182758 l 2.64931,4.06e-4 v 9.705026 9.705025 h -7.89717 -7.89717 l -0.0703,-0.245812 -0.0703,-0.245812 -6.33517,-0.09725 c -3.48435,-0.05349 -8.55568,-0.131147 -11.26962,-0.172571 -2.71395,-0.04142 -5.54489,-0.08613 -6.29097,-0.09935 l -1.35652,-0.02403 -7e-4,-3.445061 c -3.8e-4,-1.894782 -0.0169,-3.740033 -0.0367,-4.100558 -0.10823,-1.968229 -0.39079,-2.930241 -1.07327,-3.654003 -1.0008,-1.061356 -2.70009,-1.445313 -6.95557,-1.571625 -1.39631,-0.04145 -16.18716,-0.04991 -16.18721,-0.0093 -2e-5,0.01502 -0.0897,0.547068 -0.1993,1.182325 -0.32745,1.898017 -0.8965,5.766714 -1.60982,10.944383 l -0.21197,1.538583 -3.81464,1.9e-5 -3.81464,2.1e-5 z"
       style="fill:#f8ffff;fill-opacity:1;stroke-width:0.0364166" />
    <path
       transform="matrix(0.26458333,0,0,0.26458333,72.340621,105.38852)"
       id="path873"
       d="m 208.49473,19.141393 c -0.0118,-1.224975 0.29835,-4.384263 0.78104,-7.956407 0.70935,-5.2496436 1.10415,-8.5517902 1.11227,-9.303154 0.003,-0.2645255 -0.008,-0.3245049 -0.0787,-0.4233681 C 209.91414,0.90346311 207.62756,0.70482349 200.27891,0.58710422 196.8807,0.53266782 186.15876,0.48017618 178.25596,0.47928609 L 171.3095,0.47850368 V 0.23689006 -0.00472355 l 13.75637,0.02473448 c 23.27799,0.04185471 25.71582,0.09031594 25.87857,0.51443543 0.05,0.13023412 -0.32978,3.15905114 -1.36046,10.85083064 -0.27913,2.08303 -0.60636,4.541151 -0.72719,5.462491 -0.12083,0.92134 -0.25086,1.904589 -0.28896,2.184996 l -0.0693,0.509833 z"
       style="fill:#f8ffff;fill-opacity:1;stroke-width:0.0364166" />
    <path
       transform="matrix(0.26458333,0,0,0.26458333,72.340621,105.38852)"
       id="path875"
       d="m 235.06285,21.196858 c -14.30679,-0.03091 -18.60684,-0.07681 -22.08667,-0.235748 -1.27895,-0.05842 -2.22464,-0.130761 -2.87691,-0.220087 -0.72307,-0.09902 -0.73551,-0.122607 -0.0546,-0.103634 4.03359,0.112401 9.98111,0.153793 26.3201,0.183177 l 13.51966,0.02431 v 0.195545 0.195545 l -1.33831,-0.0064 c -0.73607,-0.0035 -6.80353,-0.01824 -13.48325,-0.03268 z"
       style="fill:#f8ffff;fill-opacity:1;stroke-width:0.0364166" />
    <path
       transform="matrix(0.26458333,0,0,0.26458333,72.340621,105.38852)"
       id="path877"
       d="m 212.49357,42.366705 c -0.10028,-0.734377 -0.30154,-1.247425 -0.61292,-1.562435 -0.28412,-0.287433 -0.63659,-0.444222 -1.34438,-0.598031 l -0.29133,-0.06331 0.90672,0.0057 0.90672,0.0057 0.23171,0.873998 c 0.18791,0.708785 0.23605,0.948001 0.25467,1.265477 0.0126,0.215314 0.0161,0.391479 0.008,0.391479 -0.008,0 -0.0349,-0.14339 -0.0588,-0.318645 z"
       style="fill:#f8ffff;fill-opacity:1;stroke-width:0.0364166" />
    <path
       transform="matrix(0.26458333,0,0,0.26458333,72.340621,105.38852)"
       id="path880"
       d="m 182.87786,56.306492 c 0,-0.0193 0.19554,-1.506459 0.43454,-3.304807 0.54402,-4.093489 0.67549,-5.139779 0.64918,-5.166095 -0.1068,-0.1068 -2.59539,-0.156034 -9.93296,-0.196513 -9.21229,-0.05082 -13.45198,-0.114804 -14.14785,-0.213511 l -0.18208,-0.02583 0.0111,-0.163093 c 0.0412,-0.606452 1.10285,-8.411508 1.86477,-13.71007 0.43677,-3.037459 0.54345,-3.734074 0.8016,-5.234611 0.11971,-0.695861 0.21766,-1.281713 0.21766,-1.301894 0,-0.04931 14.71458,-0.04898 16.31464,3.72e-4 4.08478,0.125983 5.78688,0.513405 6.761,1.538899 0.65354,0.688007 0.92939,1.539925 1.06979,3.303861 0.0221,0.277835 0.0449,1.861463 0.0524,3.641661 0.0137,3.264565 0.008,3.264565 -0.10726,0 -0.17104,-4.827547 -0.28291,-5.558772 -1.01974,-6.665577 -0.74488,-1.118896 -1.64607,-1.383509 -5.20847,-1.529341 -1.05145,-0.04304 -17.64996,-0.118288 -17.68216,-0.08016 -0.0124,0.01469 -0.19862,1.370488 -0.4138,3.012876 -1.37062,10.461273 -2.05405,15.501977 -2.22872,16.438072 -0.0509,0.272608 -0.10155,0.54891 -0.11263,0.614004 l -0.0201,0.118354 h 12.22254 c 9.75388,0 12.22248,0.0092 12.22228,0.04552 -1.5e-4,0.02504 -0.0314,0.17662 -0.0695,0.336854 -0.11527,0.48506 -0.42169,2.591365 -0.9854,6.773488 -0.12148,0.901311 -0.22906,1.675619 -0.23906,1.720685 -0.0146,0.0658 -0.0431,0.08194 -0.14495,0.08194 -0.0697,0 -0.12676,-0.01579 -0.12676,-0.03509 z"
       style="fill:#f8ffff;fill-opacity:1;stroke-width:0.0364166" />
    <path
       transform="matrix(0.26458333,0,0,0.26458333,72.340621,105.38852)"
       id="path882"
       d="M 171.29738,74.173718 V 74.06461 l 4.52383,-0.0092 4.52383,-0.0092 0.20873,-1.256373 c 0.30434,-1.831912 1.25711,-8.590951 2.12263,-15.058266 0.0911,-0.680991 0.17304,-1.27094 0.18199,-1.310998 0.0125,-0.05607 0.046,-0.07283 0.14533,-0.07283 0.071,0 0.12906,0.0082 0.12907,0.01821 8e-5,0.05357 -2.37368,17.826449 -2.38201,17.834775 -0.009,0.0088 -7.81962,0.07958 -8.98909,0.08145 l -0.46431,7.44e-4 z"
       style="fill:#f8ffff;fill-opacity:1;stroke-width:0.0364166" />
    <path
       transform="matrix(0.26458333,0,0,0.26458333,72.340621,105.38852)"
       id="path884"
       d="m 204.87681,100.33342 c -0.002,-0.0164 0.0619,-0.38508 0.14169,-0.819368 0.6785,-3.694486 2.21789,-14.528753 4.54655,-31.998646 l 0.49998,-3.750911 0.15319,-0.01117 c 0.14982,-0.01093 0.15279,-0.0089 0.13516,0.09104 -0.01,0.05622 -0.15762,1.191982 -0.32824,2.52392 -0.89117,6.95687 -2.13123,15.989633 -3.23965,23.59796 -0.77713,5.334388 -1.16514,7.589493 -1.60403,9.322652 -0.15783,0.623234 -0.29802,1.103913 -0.30465,1.044523 z"
       style="fill:#f8ffff;fill-opacity:1;stroke-width:0.0364166" />
    <path
       transform="matrix(0.26458333,0,0,0.26458333,72.340621,105.38852)"
       id="path886"
       d="m 210.08106,63.684568 c 0,-0.02727 0.10586,-0.850739 0.23524,-1.829934 0.58362,-4.417129 1.24812,-9.559675 1.76408,-13.652168 0.11868,-0.941369 0.2172,-1.661579 0.21894,-1.600465 0.004,0.129432 -0.12807,1.520914 -0.30842,3.25742 -0.31699,3.052192 -0.75556,6.845608 -1.29198,11.174969 -0.17959,1.449401 -0.32652,2.649783 -0.32652,2.667516 0,0.01773 -0.0656,0.03224 -0.14567,0.03224 -0.0986,0 -0.14567,-0.01601 -0.14567,-0.04958 z"
       style="fill:#f8ffff;fill-opacity:1;stroke-width:0.0364166" />
    <path
       transform="matrix(0.26458333,0,0,0.26458333,72.340621,105.38852)"
       id="path888"
       d="m 216.9638,122.8383 c 0,-0.0242 3.92389,-0.0364 11.69884,-0.0364 6.43435,0 21.40021,-0.0123 33.25746,-0.0273 16.12006,-0.0204 20.01066,-0.0329 15.42243,-0.0493 -3.37491,-0.0121 -10.16751,-0.0284 -15.09468,-0.0364 -7.92395,-0.0127 -7.07873,-0.0165 7.31904,-0.0326 l 16.27752,-0.0183 1.46171,-10.9614 c 1.60504,-12.036297 2.04089,-15.278519 2.53093,-18.827385 0.31914,-2.31117 0.70477,-4.979969 0.74327,-5.143846 l 0.0193,-0.08194 -6.09137,6.98e-4 c -7.11539,8.15e-4 -9.04944,0.03727 -10.67987,0.201293 -1.17838,0.118547 -1.7534,0.268651 -1.94054,0.506558 -0.046,0.05846 -0.0814,0.179433 -0.0981,0.335047 -0.0543,0.506647 -0.31922,1.33466 -0.75441,2.357569 -1.08975,2.561416 -3.01721,5.958362 -4.24213,7.476317 -0.64414,0.798239 -1.15149,1.134599 -2.12364,1.407913 -0.3199,0.08994 -1.15762,0.235736 -1.47487,0.256676 l -0.29133,0.0192 0.31894,-0.0527 c 1.35052,-0.223205 2.38735,-0.788972 3.41409,-1.862955 0.87749,-0.917874 1.67167,-2.102776 2.47762,-3.696577 0.84419,-1.66941 1.49278,-3.344765 2.47526,-6.393706 l 0.36672,-1.138019 h 9.52139 c 8.73801,0 9.52139,0.0048 9.52139,0.05878 0,0.03233 -0.0402,0.298623 -0.0894,0.59177 -0.0794,0.473243 -0.20704,1.375803 -0.65748,4.648071 -0.60614,4.403285 -3.46921,25.649496 -3.84003,28.495996 -0.12133,0.93135 -0.22893,1.744 -0.23911,1.80589 l -0.0185,0.11252 -1.75655,0.0258 c -4.85326,0.0711 -67.43389,0.12566 -67.43389,0.0588 z"
       style="fill:#f8ffff;fill-opacity:1;stroke-width:0.0364166" />
    <path
       transform="matrix(0.26458333,0,0,0.26458333,72.340621,105.38852)"
       id="path890"
       d=""
       style="fill:#f8ffff;fill-opacity:1;stroke-width:0.0364166" />
    <path
       transform="matrix(0.26458333,0,0,0.26458333,72.340621,105.38852)"
       id="path892"
       d="m 240.70743,100.41594 c 0,-0.0367 0.0729,-0.598919 0.162,-1.249358 0.0891,-0.650438 0.43403,-3.1655 0.76651,-5.589025 0.33248,-2.423525 0.84046,-6.127094 1.12884,-8.230153 0.84315,-6.148643 1.20585,-8.793222 1.58076,-11.525856 l 0.35224,-2.567371 0.1711,-0.01108 c 0.16951,-0.01098 0.17092,-0.01013 0.15262,0.09104 -0.0102,0.05617 -0.31353,2.298042 -0.67417,4.981946 -2.02547,15.073827 -3.09051,22.825961 -3.26956,23.798257 l -0.0637,0.34596 -0.15332,0.0112 c -0.12845,0.009 -0.15331,3.8e-4 -0.15331,-0.0555 z"
       style="fill:#f8ffff;fill-opacity:1;stroke-width:0.0364166" />
    <path
       transform="matrix(0.26458333,0,0,0.26458333,72.340621,105.38852)"
       id="path894"
       d="m 244.71325,71.172124 c 0,-0.02844 0.0324,-0.278347 0.072,-0.555353 0.0396,-0.277006 0.21224,-1.519671 0.38362,-2.761477 0.91188,-6.607734 2.2537,-16.075477 2.84509,-20.074654 l 0.13598,-0.919519 h 0.13888 c 0.10801,0 0.13888,0.01417 0.13884,0.06373 -2e-5,0.03505 -0.0659,0.506191 -0.14632,1.046977 -0.48669,3.271367 -1.2916,8.945015 -2.02005,14.238893 -0.4325,3.143123 -1.22033,8.946096 -1.22033,8.988666 0,0.01344 -0.0737,0.02444 -0.16387,0.02444 -0.11728,0 -0.16388,-0.0147 -0.16388,-0.05171 z"
       style="fill:#f8ffff;fill-opacity:1;stroke-width:0.0364166" />
    <path
       transform="matrix(0.26458333,0,0,0.26458333,72.340621,105.38852)"
       id="path896"
       d="m 248.29119,46.846916 c -0.088,-0.01091 -0.11836,-0.03289 -0.11836,-0.08556 0,-0.131454 0.47452,-3.165054 0.58238,-3.723119 0.20948,-1.083921 0.57313,-2.867916 0.58703,-2.87987 0.008,-0.0067 0.47298,-0.06421 1.0338,-0.12784 6.72387,-0.762842 9.55547,-1.123195 9.78397,-1.245121 0.0729,-0.03891 0.13258,-0.288416 0.28215,-1.180172 0.34879,-2.079571 1.15541,-7.643166 1.55356,-10.715586 l 0.0625,-0.48252 h 0.18804 0.18803 l -0.28391,2.121267 c -0.73539,5.494644 -1.3701,10.057087 -1.45157,10.434143 -0.0507,0.234864 -0.21225,0.419838 -0.4179,0.478612 -0.47354,0.135335 -1.38689,0.197805 -3.76869,0.257768 -4.77603,0.120238 -5.78208,0.263005 -6.54282,0.928489 -0.20884,0.182685 -0.53135,0.599747 -0.60901,0.787555 -0.0869,0.210256 -0.46608,2.436324 -0.81025,4.757279 -0.0572,0.385561 -0.1122,0.698397 -0.12228,0.695192 -0.0101,-0.0032 -0.0716,-0.01244 -0.13669,-0.02052 z"
       style="fill:#f8ffff;fill-opacity:1;stroke-width:0.0364166" />
    <path
       transform="matrix(0.26458333,0,0,0.26458333,72.340621,105.38852)"
       id="path898"
       d="m 262.0656,26.32519 c 0.0345,-0.145557 0.34014,-2.644148 0.41951,-3.429523 0.0758,-0.750339 0.0759,-0.763442 0.008,-0.85579 -0.27995,-0.378204 -1.95818,-0.565602 -6.21716,-0.694239 -1.19488,-0.03609 -5.19746,-0.109137 -5.99964,-0.109495 l -0.39148,-1.74e-4 v -0.201578 -0.201578 l 0.81027,0.01923 c 0.44565,0.01057 2.33431,0.02808 4.19702,0.0389 3.47565,0.02019 6.82051,0.06872 7.71579,0.11194 l 0.50531,0.0244 -0.0249,0.274982 c -0.0213,0.234598 -0.16418,1.356278 -0.57273,4.49489 l -0.0794,0.609978 h -0.19479 c -0.18348,0 -0.19366,-0.0048 -0.17536,-0.08194 z"
       style="fill:#f8ffff;fill-opacity:1;stroke-width:0.0364166" />
    <path
       transform="matrix(0.26458333,0,0,0.26458333,72.340621,105.38852)"
       id="path900"
       d="m 276.32894,176.21766 c -0.32908,-0.1005 -0.53801,-0.19137 -1.18967,-0.51745 -1.57396,-0.78758 -6.43119,-3.64121 -8.3468,-4.90377 l -0.68724,-0.45294 0.10457,-0.0632 c 0.70886,-0.42815 7.2918,-3.79141 18.05796,-9.2259 8.2949,-4.18706 31.12394,-15.64998 31.16781,-15.64998 0.0127,0 0.0227,0.0942 0.0224,0.20939 l -6.6e-4,0.2094 -5.28696,2.65841 c -23.13875,11.63472 -39.47989,19.99179 -42.17167,21.56714 -0.36352,0.21275 -0.46431,0.28851 -0.46431,0.349 0,0.1143 0.48459,0.57194 1.05608,0.99734 2.00319,1.49113 5.30298,3.31628 7.06482,3.90763 0.49093,0.16478 0.63823,0.16097 1.01967,-0.0264 2.40059,-1.17915 17.69648,-10.24953 36.27094,-21.50846 l 2.49453,-1.51207 0.011,0.22019 c 0.006,0.1211 0.006,0.22431 0,0.22936 -0.006,0.005 -3.27205,2.00823 -7.25785,4.45153 -19.81409,12.14607 -29.88527,18.30806 -30.96826,18.94775 -0.32229,0.19037 -0.54917,0.21897 -0.89627,0.11298 z"
       style="fill:#f8ffff;fill-opacity:1;stroke-width:0.0364166" />
    <path
       transform="matrix(0.26458333,0,0,0.26458333,72.340621,105.38852)"
       id="path902"
       d="m 315.47513,145.60457 c -0.008,-0.1134 -0.0132,-0.20903 -0.012,-0.21251 0.0117,-0.0359 32.35121,-16.14444 32.41164,-16.14444 0.0104,0 0.0185,0.10242 0.0181,0.22761 l -8.1e-4,0.2276 -1.26467,0.61778 c -4.62555,2.25956 -16.09167,7.95405 -25.01421,12.42295 l -6.12391,3.06719 z"
       style="fill:#f8ffff;fill-opacity:1;stroke-width:0.0364166" />
    <path
       transform="matrix(0.26458333,0,0,0.26458333,72.340621,105.38852)"
       id="path904"
       d="m 315.46874,152.45806 c -0.0133,-0.11299 -0.0196,-0.20839 -0.0141,-0.212 0.006,-0.004 0.21487,-0.13012 0.46524,-0.28113 6.65769,-4.0157 23.20956,-14.15159 30.0437,-18.39789 l 1.91187,-1.18792 0.0112,0.18795 c 0.007,0.12056 -0.006,0.20413 -0.0364,0.23306 -0.0262,0.0248 -0.80145,0.50822 -1.72279,1.07424 -14.55452,8.94141 -30.60339,18.78913 -30.62071,18.78913 -0.008,0 -0.0247,-0.0924 -0.038,-0.20544 z"
       style="fill:#f8ffff;fill-opacity:1;stroke-width:0.0364166" />
    <path
       transform="matrix(0.26458333,0,0,0.26458333,72.340621,105.38852)"
       id="path906"
       d="m 347.90578,132.55846 v -0.19729 l 1.84814,-1.15682 c 3.93791,-2.46486 6.94358,-4.3932 7.92854,-5.08669 0.38854,-0.27356 1.04597,-0.886 1.13594,-1.0582 0.0906,-0.17331 0.0433,-0.21974 -0.19785,-0.19434 -0.33473,0.0353 -1.20016,0.2968 -1.68811,0.51015 -1.11374,0.48697 -4.35676,2.03288 -7.90685,3.76913 l -1.11981,0.54766 v -0.23698 -0.23699 l 1.41114,-0.69331 c 0.77613,-0.38133 2.32884,-1.14427 3.45047,-1.69543 3.94313,-1.9376 5.32573,-2.59394 5.52224,-2.62145 0.10329,-0.0145 0.18374,0.008 0.36416,0.10353 0.2679,0.14124 0.78317,0.63362 0.88071,0.84158 0.0569,0.12139 0.0581,0.14668 0.0105,0.2386 -0.13264,0.25649 -0.54925,0.54911 -2.53509,1.7806 -2.26697,1.40583 -9.0642,5.58355 -9.08455,5.58355 -0.0108,0 -0.0196,-0.0888 -0.0196,-0.1973 z"
       style="fill:#f8ffff;fill-opacity:1;stroke-width:0.0364166" />
    <path
       transform="matrix(0.26458333,0,0,0.26458333,72.340621,105.38852)"
       id="path908"
       d="m 390.92593,36.898495 c 0,-0.01379 0.0979,-0.789044 0.21749,-1.722778 0.25087,-1.958238 0.71733,-5.746173 0.86154,-6.996315 0.15411,-1.335906 0.11954,-2.403584 -0.10116,-3.124654 -0.20161,-0.658718 -0.62098,-1.166023 -1.21458,-1.469275 -1.09977,-0.561841 -2.30799,-0.716858 -6.91916,-0.887751 -0.88128,-0.03266 -1.63875,-0.06649 -1.68326,-0.07516 -0.0661,-0.01288 -0.0776,-0.03411 -0.0626,-0.115485 0.0184,-0.09976 0.32315,-2.346011 2.09342,-15.428327 0.52018,-3.8440721 0.95523,-6.99866058 0.96679,-7.0101966 0.0815,-0.0812911 43.74151,0.07837801 45.12593,0.16502995 l 0.33686,0.021084 v 0.17771001 0.17771005 l -0.57357,-0.0188891 c -2.03997,-0.0671824 -8.77544,-0.0972967 -25.50392,-0.11402804 l -19.03087,-0.0190341 -0.24293,1.47216723 c -0.1336,0.809692 -0.33225,2.0856707 -0.44144,2.8355079 -0.76327,5.2417817 -2.07686,15.2575567 -2.22565,16.9700257 l -0.0239,0.275294 0.11511,0.09685 c 0.15124,0.12726 0.56908,0.256325 1.13185,0.349609 0.74929,0.124202 1.1159,0.150326 2.62199,0.186838 2.20533,0.05346 2.92952,0.133219 3.82375,0.421118 0.63911,0.205765 1.12983,0.526279 1.44551,0.94414 0.31798,0.420908 0.4932,0.856489 0.61529,1.529515 0.0888,0.489762 0.0896,1.965362 10e-4,2.804079 -0.0931,0.885326 -0.43173,3.741847 -0.74473,6.281864 l -0.28048,2.276038 -0.15433,0.0112 c -0.0849,0.0062 -0.15432,0 -0.15432,-0.01388 z"
       style="fill:#f8ffff;fill-opacity:1;stroke-width:0.0364166" />
    <path
       transform="matrix(0.26458333,0,0,0.26458333,72.340621,105.38852)"
       id="path910"
       d="m 386.73802,123.16105 c 0,-0.009 0.25997,-0.5707 0.57771,-1.24727 1.0029,-2.13549 1.34763,-3.1132 1.62141,-4.59867 0.19754,-1.07177 0.22263,-1.42588 0.22192,-3.13182 -6.8e-4,-1.61559 -0.0158,-1.88437 -0.16619,-2.94975 -0.39341,-2.78734 -1.51488,-5.47605 -3.20825,-7.69176 -0.8296,-1.08549 -1.68067,-1.93527 -3.23463,-3.22972 -0.61082,-0.508818 -1.12507,-0.937908 -1.14278,-0.953533 -0.0177,-0.01563 0.11561,-0.271206 0.29626,-0.567958 0.40547,-0.666057 0.5978,-1.048393 0.85816,-1.705908 0.26099,-0.659094 0.31862,-0.894624 0.49878,-2.038301 0.13891,-0.881832 1.25011,-8.63386 1.35069,-9.422797 0.0446,-0.349868 0.0467,-0.355062 0.14317,-0.355062 0.0814,0 0.0956,0.01382 0.0839,0.08194 -0.008,0.04507 -0.13604,0.909504 -0.28524,1.920976 -0.91367,6.194222 -1.4897,9.663005 -1.74724,10.521712 -0.32236,1.074851 0.14388,2.009918 1.98059,3.972091 0.23435,0.25037 0.54954,0.6027 0.70043,0.78296 2.35675,2.8156 4.22949,7.5938 4.35324,11.10707 0.0384,1.08994 -0.16881,2.48217 -0.66499,4.46828 -0.11814,0.47287 -1.03045,3.59036 -1.31137,4.4811 -0.0191,0.0606 0.94608,0.0637 19.92045,0.0637 10.9673,0 19.94055,-0.0114 19.94055,-0.0253 0,-0.0139 0.10607,-0.50145 0.23573,-1.08339 0.2649,-1.18902 0.38969,-1.84885 0.59957,-3.17025 0.84299,-5.30746 1.78531,-13.84216 1.78639,-16.17952 3.6e-4,-0.74438 -0.0252,-0.84642 -0.26212,-1.04676 -0.51424,-0.43487 -1.92759,-0.66939 -4.05295,-0.67253 -2.89298,-0.004 -5.16973,-0.3077 -5.89115,-0.785116 -0.29344,-0.19419 -0.53768,-0.71897 -0.68264,-1.466756 -0.0923,-0.476364 -0.0936,-0.715494 -0.002,-0.341769 0.11521,0.468987 0.3002,0.786118 0.67386,1.15524 0.38675,0.382055 0.87926,0.743848 1.24038,0.911181 0.75581,0.35021 1.59852,0.41179 7.29243,0.53283 l 2.08485,0.0443 v 1.84229 1.84228 l -0.162,1.20088 c -0.0891,0.66048 -0.40943,3.06904 -0.71184,5.35236 -1.18023,8.91101 -1.50411,11.22961 -1.6825,12.0448 l -0.0777,0.35506 h -20.58757 c -11.32315,0 -20.58756,-0.008 -20.58756,-0.0171 z"
       style="fill:#f8ffff;fill-opacity:1;stroke-width:0.0364166" />
    <path
       transform="matrix(0.26458333,0,0,0.26458333,72.340621,105.38852)"
       id="path912"
       d="m 384.56213,85.250819 c -0.0451,-0.0064 -0.0819,-0.03379 -0.0819,-0.06083 0,-0.02704 0.17149,-1.291835 0.38108,-2.810648 1.3246,-9.598559 3.71003,-27.363977 4.73738,-35.281511 0.16973,-1.308092 0.13507,-1.18354 0.32941,-1.18354 0.14884,0 0.16021,0.0065 0.14327,0.08194 -0.0101,0.04507 -0.0684,0.475237 -0.12946,0.955936 -0.51926,4.086203 -2.43269,18.203422 -3.44276,25.400583 -0.63665,4.536401 -1.82753,12.849865 -1.84667,12.891504 -0.005,0.01002 -0.0453,0.01298 -0.0903,0.0066 z"
       style="fill:#f8ffff;fill-opacity:1;stroke-width:0.0364166" />
    <path
       transform="matrix(0.26458333,0,0,0.26458333,72.340621,105.38852)"
       id="path914"
       d="m 389.7606,45.893253 c 0,-0.0082 0.16344,-1.270067 0.36319,-2.804079 0.19976,-1.534011 0.45354,-3.493773 0.56396,-4.355026 0.25977,-2.026289 0.21194,-1.802622 0.38549,-1.802622 0.10461,0 0.14402,0.01515 0.14402,0.05538 0,0.05909 -0.64203,5.112176 -0.94612,7.446444 -0.10045,0.771122 -0.18268,1.418427 -0.18272,1.438456 -4e-5,0.02003 -0.0738,0.03642 -0.16395,0.03642 -0.0901,0 -0.16387,-0.0067 -0.16387,-0.01497 z"
       style="fill:#f8ffff;fill-opacity:1;stroke-width:0.0364166" />
    <path
       transform="matrix(0.26458333,0,0,0.26458333,72.340621,105.38852)"
       id="path916"
       d="m 477.20946,14.427278 c -0.0698,-0.09747 -0.28718,-0.378104 -0.48295,-0.62362 C 472.50772,8.5127902 466.10758,5.0082927 456.72467,2.8513348 450.76401,1.4810899 443.75728,0.85426473 431.84302,0.62541244 l -1.28369,-0.0246574 V 0.42431012 0.24786517 l 0.84669,5.3354e-4 c 0.46568,2.9352e-4 1.748,0.0164062 2.8496,0.0358062 11.38821,0.20055426 15.27945,0.53614375 21.59505,1.86241009 3.37639,0.7090367 7.89716,2.09474 10.57902,3.2426726 2.19097,0.9378132 4.96108,2.6729563 7.03697,4.4078296 1.32049,1.1035528 2.73197,2.5203468 3.68054,3.6943758 l 0.20985,0.259717 -0.0103,0.426648 -0.0103,0.426648 z"
       style="fill:#f8ffff;fill-opacity:1;stroke-width:0.0364166" />
    <path
       transform="matrix(0.26458333,0,0,0.26458333,72.340621,105.38852)"
       id="path918"
       d="m 480.84918,48.383195 c 0.43604,-1.617273 0.8868,-3.973276 1.14123,-5.9649 0.48192,-3.772299 0.57987,-7.250954 0.34606,-12.290605 -0.26138,-5.633878 -0.63591,-7.39295 -2.35711,-11.070648 -0.64414,-1.376333 -1.56275,-2.95368 -2.40076,-4.122367 l -0.21413,-0.298623 0.0103,-0.428243 0.0103,-0.428242 0.33025,0.435533 c 1.85708,2.449101 3.10643,4.981932 4.0018,8.112924 1.32204,4.622987 1.76939,10.316338 1.27384,16.211902 -0.18185,2.163506 -0.50271,4.418006 -0.93032,6.536781 -0.18443,0.913868 -0.57639,2.608921 -0.75367,3.259286 l -0.0993,0.364166 -0.22488,0.01079 -0.22487,0.01078 z"
       style="fill:#f8ffff;fill-opacity:1;stroke-width:0.0364166" />
    <path
       transform="matrix(0.26458333,0,0,0.26458333,72.340621,105.38852)"
       id="path920"
       d="m 430.93564,79.86374 v -0.111886 l 0.30044,-0.02072 c 0.16524,-0.01139 0.7347,-0.03818 1.26547,-0.05953 16.0025,-0.643598 25.17719,-3.138535 33.01943,-8.979202 3.56378,-2.6542 6.80147,-5.887348 9.18471,-9.171836 2.59753,-3.579813 4.57532,-7.645376 5.81161,-11.946408 0.11514,-0.400583 0.22418,-0.75701 0.24229,-0.792061 0.0253,-0.0489 0.0793,-0.06373 0.23196,-0.06373 0.10945,0 0.19901,0.01396 0.19901,0.03101 0,0.07473 -0.46789,1.630704 -0.73531,2.445315 -1.83387,5.586162 -4.38389,10.108537 -7.99805,14.184268 -0.61464,0.693142 -2.36953,2.432686 -3.08383,3.056866 -5.00033,4.369468 -10.93569,7.439193 -18.17189,9.398372 -3.19469,0.864954 -7.61588,1.650024 -10.54261,1.872052 -1.50446,0.114131 -4.52941,0.212179 -7.58376,0.245812 l -2.13947,0.02356 z"
       style="fill:#f8ffff;fill-opacity:1;stroke-width:0.0364166" />
    <path
       transform="matrix(0.26458333,0,0,0.26458333,72.340621,105.38852)"
       id="path922"
       d="m 419.10328,96.84023 c -0.12377,-2.047353 0.15191,-5.598597 0.80735,-10.400328 0.36893,-2.702827 0.84339,-6.125482 0.85872,-6.19477 0.0141,-0.06381 0.0523,-0.08042 0.22577,-0.09833 0.11483,-0.01185 0.21505,-0.01528 0.22271,-0.0076 0.008,0.0077 -0.0212,0.163735 -0.0642,0.346827 -0.12085,0.514784 -0.51392,3.266522 -1.09236,7.647259 -0.73527,5.568509 -0.87006,6.791718 -0.90689,8.230153 -0.0233,0.908539 -0.0244,0.918852 -0.0511,0.476803 z"
       style="fill:#f8ffff;fill-opacity:1;stroke-width:0.0364166" />
    <path
       transform="matrix(0.26458333,0,0,0.26458333,72.340621,105.38852)"
       id="path924"
       d="m 430.55142,102.32665 -0.004,-1.77531 h 0.27381 c 0.26529,0 0.27323,0.003 0.25491,0.0819 -0.0512,0.22197 -0.21411,1.28803 -0.34635,2.26694 -0.0812,0.60087 -0.15351,1.11708 -0.16076,1.14712 -0.007,0.03 -0.0151,-0.74426 -0.0174,-1.72068 z"
       style="fill:#f8ffff;fill-opacity:1;stroke-width:0.0364166" />
    <path
       transform="matrix(0.26458333,0,0,0.26458333,72.340621,105.38852)"
       id="path926"
       d="m 424.72156,52.732944 c -0.0206,-0.05416 -0.0374,-0.240787 -0.0372,-0.414738 10e-4,-2.264912 2.17098,-17.859198 3.30164,-23.732152 0.0733,-0.380553 0.13943,-0.673423 0.14703,-0.650821 0.0199,0.05903 -0.57409,4.619227 -1.61203,12.376968 -1.26844,9.480541 -1.68165,12.438878 -1.74648,12.503712 -0.009,0.0085 -0.0323,-0.02882 -0.0529,-0.08297 z"
       style="fill:#f8ffff;fill-opacity:1;stroke-width:0.0364166" />
    <path
       transform="matrix(0.26458333,0,0,0.26458333,72.340621,105.38852)"
       id="path928"
       d="m 442.74339,33.347084 c -0.19364,-0.623012 -0.58114,-1.420443 -0.97095,-1.998122 -1.01409,-1.502819 -2.56395,-2.534923 -4.98587,-3.320262 -2.40163,-0.778762 -7.04688,-1.391604 -8.22728,-1.085415 -0.15731,0.04081 -0.18495,0.04033 -0.18495,-0.0032 0,-0.02813 0.0614,-0.07807 0.13656,-0.110974 0.1825,-0.07995 1.34608,-0.106236 2.12127,-0.04792 2.44876,0.18422 5.67731,0.772886 7.33791,1.337929 0.60107,0.204525 1.4705,0.627889 1.93458,0.942037 0.82678,0.559659 1.44973,1.203694 1.95365,2.019749 0.36105,0.584675 0.78139,1.595246 0.93603,2.250347 0.062,0.262801 0.029,0.273045 -0.051,0.0158 z"
       style="fill:#f8ffff;fill-opacity:1;stroke-width:0.0364166" />
    <path
       transform="matrix(0.26458333,0,0,0.26458333,72.340621,105.38852)"
       id="path930"
       d="m 426.51709,53.403654 c -0.41526,-0.03075 -0.77693,-0.09247 -1.0925,-0.18643 -0.14487,-0.04313 0.0283,-0.0514 1.49308,-0.07127 0.91133,-0.01237 1.80445,-0.03397 1.98471,-0.04802 1.67693,-0.130644 2.78961,-0.290627 3.60524,-0.518368 3.27552,-0.914586 5.917,-2.823156 7.75476,-5.603125 0.46641,-0.705521 0.64105,-1.005238 0.97809,-1.678599 0.94077,-1.879493 1.5918,-4.157603 1.8827,-6.58797 0.0808,-0.675382 0.0925,-0.454505 0.0173,0.329593 -0.45119,4.709791 -2.52677,8.872742 -5.67951,11.391299 -1.27656,1.019773 -2.76395,1.691543 -5.04443,2.278284 -2.01444,0.518292 -4.43384,0.803153 -5.89949,0.694607 z"
       style="fill:#f8ffff;fill-opacity:1;stroke-width:0.0364166" />
  </g>
</svg>
