<?xml version="1.0" encoding="UTF-8" standalone="no"?>
<svg
   xmlns:dc="http://purl.org/dc/elements/1.1/"
   xmlns:cc="http://creativecommons.org/ns#"
   xmlns:rdf="http://www.w3.org/1999/02/22-rdf-syntax-ns#"
   xmlns:svg="http://www.w3.org/2000/svg"
   xmlns="http://www.w3.org/2000/svg"
   xmlns:sodipodi="http://sodipodi.sourceforge.net/DTD/sodipodi-0.dtd"
   xmlns:inkscape="http://www.inkscape.org/namespaces/inkscape"
   width="100.57079mm"
   height="46.648243mm"
   viewBox="0 0 100.57079 46.648243"
   version="1.1"
   id="svg8"
   inkscape:version="1.0 (4035a4fb49, 2020-05-01)"
   sodipodi:docname="flnp_logo_inv.svg">
  <defs
     id="defs2" />
  <sodipodi:namedview
     id="base"
     pagecolor="#ffffff"
     bordercolor="#666666"
     borderopacity="1.0"
     inkscape:pageopacity="0.0"
     inkscape:pageshadow="2"
     inkscape:zoom="1.4"
     inkscape:cx="151.04176"
     inkscape:cy="-24.948938"
     inkscape:document-units="mm"
     inkscape:current-layer="g877"
     inkscape:document-rotation="0"
     showgrid="false"
     inkscape:showpageshadow="false"
     showborder="false"
     inkscape:window-width="1920"
     inkscape:window-height="1057"
     inkscape:window-x="1912"
     inkscape:window-y="-8"
     inkscape:window-maximized="1" />
  <metadata
     id="metadata5">
    <rdf:RDF>
      <cc:Work
         rdf:about="">
        <dc:format>image/svg+xml</dc:format>
        <dc:type
           rdf:resource="http://purl.org/dc/dcmitype/StillImage" />
        <dc:title />
      </cc:Work>
    </rdf:RDF>
  </metadata>
  <g
     inkscape:label="Layer 1"
     inkscape:groupmode="layer"
     id="layer1"
     transform="translate(-99.618802,-105.38852)">
    <g
       id="g877"
       transform="translate(77.240893,13.096207)">
      <path
         style="fill:#e21d23;stroke-width:0.0846667"
         d="M 57.609621,136.03164 C 55.071737,134.4381 46.994537,129.37955 39.660286,124.79042 9.951625,106.20134 -4.8343252,96.938551 -4.8891828,96.882008 c -0.031816,-0.03279 0.0072,-0.139134 0.086696,-0.236313 0.1433023,-0.17517 0.2778305,-0.09909 15.6534638,8.852215 8.529906,4.9659 15.577332,9.09067 15.660947,9.16615 0.19998,0.18053 11.798119,6.93343 11.963286,6.9655 0.174286,0.0339 26.944867,15.62299 27.050745,15.7523 0.04657,0.0569 0.627591,0.41646 1.291167,0.7991 0.663575,0.38264 1.2065,0.71087 1.2065,0.7294 0,0.0185 -1.304925,0.0303 -2.899834,0.0262 l -2.899833,-0.008 -4.614334,-2.89734 z m 35.130683,-10.49603 c -0.844719,-0.22776 -1.663124,-0.91578 -2.077932,-1.74689 -0.27697,-0.55495 -0.36642,-1.51628 -0.204063,-2.19307 0.246007,-1.02547 1.183403,-1.96756 2.243218,-2.25444 2.652065,-0.71788 4.937964,1.96417 3.773196,4.42707 -0.129515,0.27386 -0.355693,0.63484 -0.502624,0.80218 -0.762161,0.86805 -2.104797,1.26902 -3.231795,0.96515 z m -5.210488,-0.30971 c -1.505128,-0.20271 -2.53647,-0.80792 -3.278252,-1.92371 -0.492184,-0.74035 -0.464879,-0.67517 -2.225285,-5.31202 -0.813012,-2.14144 -1.506331,-3.92166 -1.540688,-3.95602 -0.03437,-0.0344 -0.378731,2.30828 -0.765252,5.20587 -0.386526,2.8976 -0.721526,5.33504 -0.744449,5.41653 -0.03895,0.13847 -0.307253,0.14817 -4.099974,0.14817 -2.232061,0 -4.058294,-0.0136 -4.058294,-0.0303 0,-0.0166 0.284424,-2.13698 0.632054,-4.71186 0.347631,-2.57487 0.613923,-4.71092 0.591761,-4.74678 -0.02216,-0.0359 0.322065,-2.7512 0.764946,-6.03409 0.442882,-3.28289 0.805239,-6.04811 0.805239,-6.14495 0,-0.17419 -0.02565,-0.17606 -2.416836,-0.17606 h -2.416838 l 0.04811,-0.27517 c 0.02646,-0.15134 0.332371,-2.40877 0.679806,-5.0165 0.347434,-2.607733 0.653089,-4.865158 0.679233,-5.0165 l 0.04753,-0.275166 h 2.458225 2.458224 l -0.04769,0.232833 c -0.07602,0.371135 -1.151408,8.449663 -1.148184,8.625363 0.0016,0.0873 0.108742,-0.1079 0.238086,-0.43386 0.793097,-1.99872 2.326392,-2.999658 4.602,-3.0042 1.992564,-0.004 3.238425,0.769028 4.150031,2.57491 0.289366,0.57323 2.629053,6.95935 3.03271,8.27771 0.14688,0.47973 0.296697,0.90361 0.332926,0.94194 0.09714,0.1028 0.148853,-0.18127 0.29784,-1.63603 0.07392,-0.72178 0.39017,-3.19828 0.702785,-5.50333 l 0.568376,-4.191003 4.137076,-0.02198 4.137076,-0.02198 -0.04952,0.275978 c -0.05415,0.301835 -2.594297,19.167945 -2.594297,19.268335 0,0.034 -0.295266,0.10878 -0.656149,0.1662 -1.775113,0.28244 -3.248356,1.6264 -3.705107,3.37998 -0.262027,1.006 -0.119075,2.2704 0.359562,3.18039 0.128186,0.24369 0.245263,0.46952 0.260189,0.50184 0.08289,0.17955 -1.452253,0.34111 -2.236969,0.23542 z M 73.923459,101.50551 c -0.02703,-0.0675 -0.04709,-0.0475 -0.05115,0.0511 -0.0037,0.0893 0.01633,0.13926 0.04447,0.11113 0.02813,-0.0281 0.03114,-0.10116 0.0067,-0.16228 z"
         id="path881" />
      <path
         style="fill:#ffffff;stroke-width:0.0846667"
         d="m 66.881392,138.21702 c -0.744643,-0.43579 -1.363786,-0.82202 -1.375873,-0.85828 -0.02501,-0.075 24.216562,-12.21536 24.391391,-12.21536 0.06259,0 0.180864,0.0741 0.262839,0.16469 0.144551,0.15973 0.13539,0.17339 -0.304377,0.45406 -0.696248,0.44437 -21.258227,13.05771 -21.45075,13.15854 -0.142061,0.0744 -0.387391,-0.0389 -1.52323,-0.70365 z M 22.431361,124.52955 c 0.0294,-0.19791 0.212707,-1.54093 0.407354,-2.9845 l 0.353903,-2.62467 1.11593,-0.0423 c 0.952616,-0.0361 1.150868,-0.0679 1.354667,-0.21713 0.336289,-0.24622 0.514908,-0.65391 0.640176,-1.46117 l 0.108362,-0.6983 5.882716,3.68417 5.882716,3.68418 -0.02381,0.27696 c -0.01309,0.15233 -0.04437,0.38173 -0.06951,0.50979 l -0.0457,0.23283 h -7.830128 -7.830128 z m 75.226443,-0.16383 c 0.342028,-0.72322 0.450985,-1.32922 0.400583,-2.228 -0.0705,-1.25718 -0.62605,-2.36874 -1.581107,-3.16355 l -0.480086,-0.39953 0.15345,-0.25046 c 0.0844,-0.13776 0.192303,-0.3922 0.239793,-0.56542 0.134095,-0.48912 2.451854,-17.819422 2.451854,-18.332921 0,-0.867883 -0.271848,-1.044645 -1.696839,-1.103333 l -0.977748,-0.04027 0.403606,-2.973593 c 0.221988,-1.635477 0.404673,-2.986441 0.405969,-3.002144 0.0013,-0.0157 3.383721,-0.01131 7.516511,0.0098 8.11269,0.04135 8.96339,0.08144 11.15805,0.525809 1.03127,0.208807 2.49564,0.674073 3.12646,0.993347 1.58416,0.801793 2.80102,2.005157 3.42969,3.391666 1.15797,2.553843 0.93636,6.866539 -0.51167,9.957579 -1.65171,3.52581 -5.07432,5.67931 -9.83319,6.18702 -0.45219,0.0482 -1.82918,0.0877 -3.05999,0.0877 h -2.23783 l -0.0444,0.1905 c -0.0244,0.10478 -0.16684,1.12755 -0.31645,2.27282 -0.30037,2.29923 -0.29528,2.36888 0.20035,2.73607 0.2121,0.15714 0.37994,0.18018 1.49918,0.20581 l 1.26034,0.0288 -0.0393,0.22515 c -0.0216,0.12382 -0.19204,1.38719 -0.37873,2.80747 -0.18669,1.42028 -0.3586,2.66806 -0.38201,2.77283 l -0.0426,0.1905 H 102.8659 97.410105 Z M 109.46499,106.2176 c 1.49263,-0.38878 2.48252,-1.53969 2.80922,-3.26615 0.17422,-0.9207 0.11199,-1.63767 -0.19037,-2.1932 -0.26083,-0.47922 -0.65164,-0.778012 -1.32902,-1.016094 -0.77243,-0.271485 -2.3452,-0.4465 -2.3452,-0.26097 0,0.09996 -0.83189,6.329824 -0.88577,6.633364 l -0.0413,0.23283 h 0.7421 c 0.40815,0 0.96633,-0.0584 1.24037,-0.12978 z m -63.758927,18.35428 c 0.03705,-0.1801 0.64289,-4.63241 0.64289,-4.72458 0,-0.0115 0.485775,-0.0354 1.0795,-0.0531 1.283615,-0.0383 1.55999,-0.14403 1.80113,-0.68936 0.110827,-0.25063 0.44201,-2.47451 1.13558,-7.62537 0.538518,-3.99935 0.979124,-7.43539 0.979124,-7.63565 0,-0.20026 -0.03489,-0.45589 -0.07754,-0.56807 -0.155651,-0.40939 -0.401243,-0.4387 -3.690123,-0.44045 l -3.048,-0.002 -0.04398,-1.27109 c -0.03711,-1.0725 -0.07083,-1.31722 -0.215849,-1.566336 -0.27447,-0.471504 -0.447197,-0.496801 -3.428512,-0.502132 l -2.672341,-0.0048 -0.320616,2.434168 c -0.176339,1.33879 -0.340623,2.53894 -0.365076,2.667 l -0.04446,0.23283 h 3.237096 3.237095 l -0.04372,0.1905 c -0.02404,0.10478 -0.24502,1.70453 -0.491056,3.55501 l -0.447336,3.36451 -3.220572,0.0222 -3.220572,0.0222 -0.378109,2.84482 c -0.54136,4.07309 -0.571113,3.99416 1.523681,4.04211 0.695195,0.0159 1.263992,0.0557 1.263992,0.0883 0,0.25128 -0.362207,2.6042 -0.407689,2.64838 -0.0799,0.0776 -11.916182,-6.83612 -11.891342,-6.94589 0.119706,-0.52898 1.990215,-14.77373 1.999504,-15.227099 0.01044,-0.509605 -0.01576,-0.639646 -0.15746,-0.781468 -0.215094,-0.21528 -0.88077,-0.342865 -1.788903,-0.342865 -0.477292,0 -0.708111,-0.03175 -0.708111,-0.09739 0,-0.220027 0.774206,-5.780533 0.81375,-5.844516 0.0236,-0.03819 5.469912,-0.06943 12.102915,-0.06943 11.806601,0 12.060004,0.0034 12.060004,0.161424 0,0.08878 -0.1524,1.287792 -0.338667,2.664462 -0.186267,1.37667 -0.338667,2.542279 -0.338667,2.590242 0,0.05915 2.328961,0.0872 7.239001,0.0872 3.98145,0 7.239,0.0272 7.239,0.06044 0,0.110178 -0.597621,4.55042 -0.637512,4.73662 -0.03759,0.17548 -0.08871,0.18391 -1.288317,0.21244 -1.29968,0.0309 -1.489232,0.0794 -1.713252,0.43809 -0.05991,0.0959 -0.555019,3.49883 -1.109938,7.62863 -0.550981,4.1005 -1.024454,7.58153 -1.052162,7.73564 l -0.05038,0.28019 2.946945,-0.0262 c 2.81292,-0.025 2.964971,-0.0345 3.343257,-0.20934 0.62324,-0.28802 1.211109,-1.23305 1.68996,-2.71669 l 0.198119,-0.61383 h 2.527081 2.527081 l -0.05157,0.3175 c -0.049,0.30169 -1.233319,9.07473 -1.233319,9.13599 0,0.016 -5.660877,0.0292 -12.579729,0.0292 H 45.658166 Z"
         id="path879" />
    </g>
  </g>
</svg>
