<?xml version="1.0" encoding="UTF-8" standalone="no"?>
<svg
   xmlns:dc="http://purl.org/dc/elements/1.1/"
   xmlns:cc="http://creativecommons.org/ns#"
   xmlns:rdf="http://www.w3.org/1999/02/22-rdf-syntax-ns#"
   xmlns:svg="http://www.w3.org/2000/svg"
   xmlns="http://www.w3.org/2000/svg"
   xmlns:sodipodi="http://sodipodi.sourceforge.net/DTD/sodipodi-0.dtd"
   xmlns:inkscape="http://www.inkscape.org/namespaces/inkscape"
   width="175"
   height="175"
   viewBox="0 0 175 175"
   version="1.1"
   id="svg8"
   sodipodi:docname="GSISmallLogoDirect.svg"
   inkscape:version="0.92.4 (5da689c313, 2019-01-14)">
  <circle
     id="path30"
     cy="87.5"
     cx="87.5"
     style="display:inline;fill:#ffffff;stroke-width:0.25"
     clip-path="url(#clipPath158)"
     r="87.5" />
  <g
     id="Page-1"
     transform="matrix(0.45734913,0,0,0.32947709,46.237215,-128.722)"
     style="display:inline;fill:none;fill-rule:evenodd;stroke:none;stroke-width:1"
     clip-path="url(#clipPath166)">
    <path
       d="m 1,802.17541 c 73.924809,1.27712 118.46086,1.27712 133.60814,0 22.72093,-1.91569 34.15201,-6.30262 44.51485,-15.01825 4.43576,-3.73068 16.46656,-12.19708 28.87155,-60.13512 4.61026,-17.81597 11.56048,-57.19845 20.85066,-118.14742 l 17.93308,-169.43478 20.77483,-246.03836 9.09445,-96.903021 C 283.57313,34.166153 290.57838,3 297.66329,3 c 7.08492,0 14.23584,31.166153 21.45276,93.498459 l 9.19678,96.903021 c 11.69399,122.15357 23.75314,229.63282 36.17748,322.43775 12.42433,92.80493 27.04756,184.63276 43.86969,275.48349 l 27.81353,139.44984 c 11.86556,37.57022 23.45072,56.35533 34.75547,56.35533 11.30474,0 22.49622,-18.78511 33.57442,-56.35533 11.28336,-56.05196 19.512,-102.53525 24.68593,-139.44984 5.17393,-36.9146 11.98429,-97.73063 20.4311,-182.4481 l 23.77548,-222.10676 c 6.81146,-45.17819 13.61526,-67.76729 20.41141,-67.76729 6.79614,0 13.58667,22.5891 20.37159,67.76729 L 647.3181,673.2043 c 5.99011,69.58259 12.93367,127.76056 20.83067,174.53391 7.897,46.77334 17.03467,83.84328 27.41301,111.20981"
       id="RegataLogo"
       inkscape:connector-curvature="0"
       style="stroke:#ff0606;stroke-width:6" />
  </g>
  <metadata
     id="metadata14">
    <rdf:RDF>
      <cc:Work
         rdf:about="">
        <dc:format>image/svg+xml</dc:format>
        <dc:type
           rdf:resource="http://purl.org/dc/dcmitype/StillImage" />
        <dc:title>RegataLogo@1x</dc:title>
      </cc:Work>
    </rdf:RDF>
  </metadata>
  <defs
     id="defs12">
    <clipPath
       clipPathUnits="userSpaceOnUse"
       id="clipPath158">
      <circle
         id="circle160"
         cy="87.737083"
         cx="88.039246"
         style="display:inline;fill:#ffffff;stroke-width:0.25"
         clip-path="none"
         r="87.5" />
    </clipPath>
    <clipPath
       clipPathUnits="userSpaceOnUse"
       id="clipPath162">
      <ellipse
         id="circle164"
         cy="12.283338"
         cx="10.358629"
         style="display:inline;fill:#ffffff;stroke-width:0.07310029"
         clip-path="none"
         rx="24.273241"
         ry="26.967861" />
    </clipPath>
    <clipPath
       clipPathUnits="userSpaceOnUse"
       id="clipPath166">
      <ellipse
         id="circle168"
         cy="656.97766"
         cx="91.400703"
         style="display:inline;fill:#ffffff;stroke-width:0.6440261"
         clip-path="none"
         rx="191.31992"
         ry="265.57233" />
    </clipPath>
  </defs>
  <sodipodi:namedview
     pagecolor="#ffffff"
     bordercolor="#666666"
     borderopacity="1"
     objecttolerance="10"
     gridtolerance="10"
     guidetolerance="10"
     inkscape:pageopacity="0"
     inkscape:pageshadow="2"
     inkscape:window-width="2493"
     inkscape:window-height="1417"
     id="namedview10"
     showgrid="false"
     inkscape:snap-page="false"
     inkscape:snap-grids="true"
     inkscape:snap-to-guides="true"
     inkscape:zoom="0.95257316"
     inkscape:cx="105.88563"
     inkscape:cy="-78.603604"
     inkscape:window-x="59"
     inkscape:window-y="-8"
     inkscape:window-maximized="1"
     inkscape:current-layer="svg8"
     showguides="false"
     height="700px"
     fit-margin-top="0"
     fit-margin-left="0"
     fit-margin-right="0"
     fit-margin-bottom="0">
    <inkscape:grid
       type="xygrid"
       id="grid18"
       originx="-141.93007"
       originy="-523.29239" />
  </sodipodi:namedview>
  <!-- Generator: Sketch 63.1 (92452) - https://sketch.com -->
  <title
     id="title2">RegataLogo@1x</title>
  <desc
     id="desc4">Created with Sketch.</desc>
  <g
     style="display:inline;fill:none;stroke:#1e2993;stroke-width:0.5;stroke-linecap:round;stroke-linejoin:round"
     id="g4012"
     transform="matrix(3.6047926,0,0,3.2446028,50.698535,47.882533)"
     clip-path="url(#clipPath162)">
    <polygon
       id="polygon3995"
       points="22,7 12,2 2,7 12,12 " />
    <polyline
       id="polyline3997"
       points="2 17 12 22 22 17" />
    <polyline
       id="polyline3999"
       points="2 12 12 17 22 12" />
  </g>
</svg>
